<svg width="25" height="25" viewBox="0 0 25 25" fill="none" xmlns="http://www.w3.org/2000/svg"><g clip-path="url(#clip0_442_24098)" fill-rule="evenodd" clip-rule="evenodd"><path d="M9.01821 11.3014H10.8815L10.8844 9.42618L14.1009 9.41892L14.1118 11.2971L15.9737 11.3021C16.0317 11.5009 16.0063 14.1371 15.9896 14.526L14.1147 14.5281L14.1104 16.3983L10.883 16.4106L10.8822 14.5267L9.00442 14.5274C8.98773 14.1335 8.96016 11.5031 9.01821 11.3014ZM11.1253 7.71779C11.097 6.96044 11.7558 6.34963 12.4974 6.34528C13.2426 6.34093 13.8854 6.96915 13.8716 7.72069L11.1253 7.71779ZM9.72202 7.71852C9.06537 7.73012 7.45385 7.68515 6.97061 7.7265C6.18698 7.79396 5.63263 8.30539 5.39464 8.89807C5.18349 9.42255 5.26766 10.8567 5.26766 11.5307C5.26766 12.4476 5.26766 13.3638 5.26766 14.2808C5.26766 14.9438 5.18567 16.4041 5.38811 16.9191C5.93302 18.304 7.20497 18.1103 8.34051 18.1081C8.79908 18.1074 9.25765 18.1088 9.71549 18.1081C10.6428 18.1059 11.5701 18.1081 12.4974 18.1081C13.4145 18.1081 14.3309 18.1074 15.2481 18.1081C16.1282 18.1081 17.1346 18.1531 18.0002 18.1016C18.8034 18.053 19.3658 17.5198 19.5972 16.9416C19.8149 16.399 19.7264 15.0018 19.7264 14.3127C19.7264 13.3957 19.7264 12.4795 19.7264 11.5626C19.7264 10.8865 19.8091 9.45302 19.6088 8.92201C19.3824 8.3228 18.8252 7.80194 18.0532 7.72867C17.6512 7.69095 17.1027 7.71997 16.6855 7.71997C16.2189 7.72069 15.7393 7.73012 15.2742 7.71779C15.214 6.83639 14.9179 6.22848 14.4717 5.77509C12.9277 4.20454 9.87004 4.9452 9.72202 7.71852Z" fill="#F4F3F4"/><path d="M9.01818 11.3014C8.96013 11.5031 8.98771 14.1335 9.00439 14.5274L10.8822 14.5267L10.8829 16.4106L14.1103 16.3983L14.1147 14.5281L15.9896 14.526C16.007 14.1379 16.0317 11.5009 15.9736 11.3022L14.1118 11.2971L14.1009 9.41895L10.8844 9.4262L10.8815 11.3014H9.01818Z" fill="#B30837"/><path d="M11.1252 7.71808L13.8715 7.72099C13.8853 6.97017 13.2424 6.34122 12.4973 6.34557C11.7557 6.34992 11.0976 6.96074 11.1252 7.71808ZM9.7219 7.71881C9.86992 4.94549 12.9283 4.20483 14.4716 5.77538C14.9171 6.22878 15.2138 6.83669 15.2741 7.71808C15.7392 7.73042 16.2188 7.72099 16.6853 7.72026C17.1025 7.71953 17.6504 7.69052 18.0531 7.72897C18.8244 7.80151 19.3823 8.32309 19.6087 8.9223C19.809 9.45331 19.7263 10.8868 19.7263 11.5629C19.7263 12.4798 19.7263 13.396 19.7263 14.313C19.7263 15.0028 19.8148 16.3993 19.5971 16.9419C19.3649 17.5201 18.8033 18.054 18.0001 18.1019C17.1345 18.1541 16.1288 18.1091 15.248 18.1084C14.3308 18.1077 13.4144 18.1084 12.4973 18.1084C11.57 18.1084 10.6427 18.1062 9.71537 18.1084C9.2568 18.1099 8.79823 18.1077 8.34039 18.1084C7.20485 18.1106 5.93363 18.3043 5.38799 16.9194C5.18483 16.4044 5.26754 14.9434 5.26754 14.281C5.26754 13.3641 5.26754 12.4479 5.26754 11.5309C5.26754 10.857 5.18337 9.42284 5.39452 8.89836C5.63324 8.30568 6.18686 7.79353 6.97049 7.72679C7.45373 7.68544 9.06525 7.73042 9.7219 7.71881ZM11.6969 25H13.1844C13.2881 24.9565 14.3185 24.8716 14.5499 24.8324C14.9751 24.7613 15.4054 24.667 15.8067 24.5575C19.1944 23.6304 21.771 21.4686 23.4463 18.5408C24.3939 16.8839 25.0114 14.614 24.9998 12.5313C24.9896 10.7468 24.6196 8.92883 23.9622 7.50626C23.7975 7.15007 23.6364 6.79534 23.4601 6.4776C23.286 6.16566 23.0806 5.80875 22.8905 5.54687L21.538 3.8675C21.1796 3.46634 20.3437 2.74454 19.9265 2.44784C18.336 1.31979 16.5997 0.483373 14.6029 0.177967L13.6154 0.0466646C13.5051 0.0372341 13.3629 0.0452138 13.2649 -0.000488281H11.8413C11.7688 0.0292543 10.7145 0.124286 10.4976 0.160557C9.39466 0.341189 7.97977 0.746704 7.03216 1.25378C5.62163 2.00823 4.65805 2.62702 3.51671 3.80221C-2.41567 9.91251 -0.545838 20.0032 6.90809 23.6833C7.59812 24.0243 8.29831 24.3 9.0921 24.5314C9.76471 24.7272 10.6209 24.8883 11.3429 24.9449L11.6977 25.0007L11.6969 25Z" fill="#353337"/></g><defs><clipPath id="clip0_442_24098"><path fill="#fff" d="M0 0H25V25H0z"/></clipPath></defs></svg>