<svg width="24" height="28" viewBox="0 0 24 28" fill="none" xmlns="http://www.w3.org/2000/svg"><g clip-path="url(#clip0_442_24085)"><path fill-rule="evenodd" clip-rule="evenodd" d="M6.75782 16.3516C6.53475 13.6438 7.62387 12.6721 8.98855 11.0785C9.68401 10.2622 10.1958 9.57554 10.7863 8.75931C12.046 6.99727 11.5211 6.62154 14.4079 7.01023V14.2527L16.1138 14.4341L16.1006 16.3775L14.3948 16.4682V19.202L12.0328 19.0465V16.4812L6.7447 16.3646L6.75782 16.3516ZM9.00167 14.1879L10.0908 14.2916L10.9831 14.2786L12.0591 14.1879L12.0328 10.0031C11.6785 10.7416 9.60528 13.1126 9.00167 14.2009V14.1879ZM0.131251 4.03032C-0.406748 9.5885 0.852957 15.8722 3.4511 20.2125C5.01261 22.8426 9.46094 27.8696 11.8885 27.9992C14.3685 28.1287 19.4336 22.3633 20.5227 20.4457C23.6195 14.9653 24.0132 11.5449 24.0132 5.13159C24.0132 2.72175 23.2521 3.87484 18.397 2.48853C17.3341 2.19054 16.2319 1.82777 15.3133 1.45204C14.4735 1.10223 13.0301 0.15643 12.584 0.0268683C11.6654 -0.219298 8.30621 1.6723 6.79719 2.17759C4.85514 2.82539 1.37783 3.16225 0.131251 4.03032Z" fill="#B30837"/></g><defs><clipPath id="clip0_442_24085"><path fill="#fff" d="M0 0H24V28H0z"/></clipPath></defs></svg>