<svg width="24" height="24" viewBox="0 0 24 24" fill="none" xmlns="http://www.w3.org/2000/svg"><circle cx="12" cy="12" r="11.25" stroke="#AF1241" stroke-width="1.5"/><g clip-path="url(#clip0_442_24093)"><path fill-rule="evenodd" clip-rule="evenodd" d="M15.0714 9.57918L15.0554 9.59436L15.0397 9.60979L15.0239 9.62522L15.0079 9.6404L14.9922 9.65583L14.9762 9.67126L14.9604 9.68669L14.9447 9.70187L14.9287 9.71704L14.913 9.73247L14.8972 9.74765L14.8812 9.76283L14.8655 9.77826L14.8497 9.79344L14.8337 9.80861L14.818 9.82404L14.8023 9.83922L14.7863 9.8544L14.7705 9.86983L14.7545 9.88501L14.7385 9.90018L14.7228 9.91561L14.707 9.93104L14.691 9.94622L14.6753 9.96165L14.6596 9.97683L14.6436 9.99201L14.6278 10.0074L14.6118 10.0226L14.5961 10.038L14.5803 10.0532L14.5643 10.0684L14.5483 10.0836L14.5326 10.099L14.5166 10.1144L14.5009 10.1299L14.4851 10.145L14.4691 10.1602L14.4534 10.1757L14.4374 10.1908L14.4216 10.2063L14.4059 10.2217L14.3899 10.2369L14.3742 10.2523L14.3584 10.2677L14.3424 10.2829L14.3267 10.2983L14.3109 10.3138L14.2952 10.3289L14.2792 10.3441L14.2632 10.3593L14.2474 10.3745L14.2317 10.3899L14.2157 10.4051L14.2 10.4205L14.184 10.4357L14.1682 10.4511L14.1522 10.4666L14.1362 10.4817L14.1205 10.4969L14.1047 10.5123L14.0887 10.5275L14.073 10.5427L14.057 10.5579L14.0413 10.5733L14.0255 10.5887L14.0095 10.6039L13.9938 10.6193L13.978 10.6345L13.962 10.6497L13.9463 10.6651L13.9303 10.6803L13.9146 10.6957L13.8988 10.7112L13.8831 10.7263L13.8671 10.7415L13.8513 10.7569L13.8353 10.7721L13.8196 10.7876L13.8039 10.8027L13.7879 10.8179L13.7721 10.8333L13.7564 10.8485L13.7404 10.8637L13.7246 10.8791L13.7089 10.8943L13.6929 10.9095L13.6772 10.9249L13.6614 10.9401L13.6454 10.9553L13.6297 10.9707L13.6139 10.9859L13.5979 11.001L13.5822 11.0165L13.5665 11.0317L13.5505 11.0468L13.5345 11.062L13.5187 11.0774L13.5027 11.0929L13.487 11.1083L13.4712 11.1235L13.4552 11.1387L13.4395 11.1541L13.4235 11.1693L13.4077 11.1847L13.392 11.1999L13.376 11.215L13.3582 11.2302C13.2527 11.2603 12.6158 11.2388 12.4476 11.2388C12.0565 11.2388 9.90074 11.2535 9.70321 11.2333L9.73311 11.2072L9.74885 11.192L9.76459 11.1766L9.78059 11.1614L9.79633 11.146L9.81207 11.1308L9.82807 11.1156L9.84381 11.1002L9.85955 11.085L9.87503 11.0696L9.89156 11.0542L9.9073 11.0392L9.9233 11.0241L9.93904 11.0086L9.95478 10.9935L9.97078 10.9783L9.98652 10.9628L10.0025 10.9477L10.0183 10.9325L10.034 10.9171L10.05 10.9019L10.0657 10.8867L10.0815 10.8713L10.0975 10.8561L10.1132 10.8409L10.129 10.8255L10.145 10.8103L10.1607 10.7949L10.1764 10.7797L10.1924 10.7645L10.2082 10.7491L10.2239 10.7339L10.2399 10.7187L10.2557 10.7033L10.2711 10.6879L10.2877 10.6725L10.3034 10.6575L10.3191 10.6424L10.3351 10.6272L10.3509 10.6117L10.3666 10.5966L10.3826 10.5814L10.3981 10.566L10.4138 10.5503L10.4298 10.5348L10.4461 10.5197L10.4616 10.5045L10.4776 10.4888L10.4939 10.4736L10.5099 10.4587L10.5253 10.4433L10.5416 10.4278L10.5571 10.4127L10.5736 10.3972L10.5891 10.3821L10.6048 10.3664L10.6213 10.3512L10.6371 10.3363L10.6531 10.3211L10.6688 10.3057L10.6843 10.2902L10.7008 10.2748L10.7166 10.2599L10.732 10.2445L10.7486 10.229L10.7643 10.2141L10.7798 10.1987L10.7963 10.1832L10.8121 10.1683L10.8281 10.1531L10.8438 10.138L10.8595 10.1225L10.8755 10.1074L10.891 10.0919L10.9073 10.0765L10.9233 10.0616L10.939 10.0461L10.9548 10.031L10.9708 10.0158L10.9865 10.0004L11.0022 9.98518L11.0182 9.97L11.034 9.95457L11.0497 9.93939L11.0657 9.92421L11.0812 9.90878L11.0969 9.8931L11.1135 9.87792L11.1292 9.863L11.1449 9.84782L11.1609 9.83264L11.1767 9.81721L11.1927 9.80204L11.2084 9.78686L11.2242 9.77143L11.2402 9.75625L11.2559 9.74108L11.2716 9.72564L11.2876 9.71047L11.3034 9.69529L11.3191 9.67986L11.3351 9.66468L11.3506 9.64925L11.3669 9.63382L11.3829 9.6189L11.3983 9.60347L11.4146 9.58804L11.4306 9.57311L11.4461 9.55768L11.4624 9.54225L11.4778 9.52707L11.4944 9.51164L11.5098 9.49647L11.5264 9.48129L11.5421 9.46611L11.5578 9.45093L11.5738 9.4355L11.5893 9.42007L11.6056 9.4049L11.6213 9.38972L11.6373 9.37429L11.6533 9.35911L11.6691 9.34394L11.6851 9.3285L11.7008 9.31333L11.7168 9.29815L11.7328 9.28272L11.7488 9.26754L11.7646 9.25237L11.7811 9.23719L11.7971 9.22226L11.8126 9.20683L11.8291 9.1914L11.8448 9.17648L11.8606 9.1613L11.8768 9.14562L11.8926 9.13069L11.9083 9.11526L11.9243 9.09983L11.94 9.08466L11.9558 9.06948L11.9718 9.05405L11.9875 9.03887L12.0035 9.02344L12.0195 9.00826L12.0353 8.99283L12.0513 8.9774L12.0673 8.96248L12.083 8.9473L12.099 8.93187L12.115 8.91669L12.1313 8.90152L12.1468 8.88659L12.163 8.87091L12.179 8.85598L12.1945 8.84081L12.2108 8.82512L12.2265 8.8102L12.2425 8.79477L12.2585 8.77959L12.2742 8.76441L12.2905 8.74898L12.3062 8.73406L12.3223 8.71863L12.3383 8.70345L12.354 8.68827L12.37 8.67284L12.3857 8.65767L12.4015 8.64249L12.4175 8.62731L12.4332 8.61214L12.4497 8.5967L12.4657 8.58203L12.4815 8.5666L12.497 8.55143L12.5132 8.53574L12.5292 8.52082L12.545 8.50564L12.561 8.49021L12.577 8.47503L12.5927 8.45986L12.609 8.44443L12.625 8.4295L12.641 8.41407L12.657 8.39889L12.6727 8.38372L12.6887 8.36829L12.7047 8.35311L12.7205 8.33793L12.7365 8.32275L12.7525 8.30758L12.7687 8.2924L12.7847 8.27747L12.8007 8.2623L12.8167 8.24712L13.2527 7.82519L13.2908 7.8262L13.3091 7.83961L13.3267 7.85352L13.3443 7.86718L13.3613 7.8816L13.3776 7.89652L13.3941 7.9112L13.4106 7.92612L13.4264 7.94155L13.4429 7.95622L13.4597 7.97089L13.4754 7.98632L13.492 8.001C13.5129 8.03565 13.519 8.03818 13.5376 8.06398L13.5539 8.07865L13.5704 8.09434L13.5859 8.10951L13.6019 8.12444L13.6181 8.13987L13.6339 8.15454L13.6504 8.16972L13.6661 8.1854L13.6816 8.20032L13.6979 8.21601L13.7136 8.23093L13.7299 8.24636L13.7456 8.26129L13.7619 8.27646L13.7779 8.29189L13.7936 8.30707L13.8096 8.32225L13.8256 8.33717L13.8419 8.35235L13.8579 8.36778L13.8736 8.3827L13.8899 8.39788L13.9059 8.41306L13.9219 8.42824L13.9379 8.44367L13.9536 8.45884L13.9696 8.47377L13.9862 8.48869L14.0022 8.50387L14.0182 8.51905L14.0342 8.53448L14.0499 8.5494L14.0662 8.56483L14.0819 8.58001L14.0982 8.59493L14.1142 8.61011L14.1299 8.62529L14.1459 8.64021L14.1627 8.65514L14.1787 8.67057L14.1942 8.68575L14.2105 8.70092L14.2265 8.71661L14.2419 8.73178L14.2582 8.74721L14.2737 8.76239L14.2902 8.77757L14.3059 8.79325L14.3214 8.80843L14.3379 8.82386L14.3534 8.83904L14.37 8.85421L14.3857 8.86964L14.4012 8.88482L14.4177 8.9L14.4329 8.91543L14.4494 8.93035L14.4654 8.94578L14.4807 8.96121L14.4972 8.97639L14.5124 8.99182L14.5289 9.00675L14.5447 9.02218L14.5599 9.03761L14.5764 9.05253L14.5921 9.06771L14.6081 9.08314L14.6239 9.09857L14.6391 9.114L14.6556 9.12892L14.6714 9.14435L14.6866 9.15978L14.7031 9.17471L14.7188 9.19014L14.7341 9.20557L14.7506 9.22049L14.7663 9.23567L14.7821 9.25085L14.7981 9.26628L14.8133 9.28171L14.8298 9.29663L14.8455 9.31181L14.8613 9.32724L14.8765 9.34267L14.893 9.35759L14.9088 9.37302L14.9245 9.3882L14.9405 9.40363L14.9557 9.41932L14.9722 9.43424L14.9883 9.44942L15.004 9.46485L15.0197 9.48028L15.0349 9.49571L15.0515 9.51089L15.0667 9.52657L15.0832 9.54276C15.0898 9.55515 15.0903 9.5463 15.0877 9.56502C15.079 9.62598 15.1066 9.5468 15.0746 9.5802L15.0714 9.57918ZM5 17.8369C5 18.3228 5.23163 18.6909 5.63981 18.8882C5.77018 18.9512 5.90607 18.9874 6.04169 19H6.27044C6.83417 18.9481 7.33337 18.5196 7.33337 18.0051C7.33337 17.7104 7.35095 17.5283 7.18122 17.2794C7.09282 17.1496 6.70143 16.7343 6.55191 16.6007C6.11383 16.2099 6.15816 16.284 5.44857 16.9683C5.1915 17.2162 5.00026 17.4423 5.00026 17.8369H5ZM19 5.3141V5.59868C18.9798 5.86985 18.9019 6.1395 18.7623 6.32694L18.282 6.84347C18.1529 6.96919 17.6522 7.45158 17.5367 7.60967C17.4774 7.69087 17.4444 7.87452 17.4444 8.01035C17.4444 8.28127 17.7012 8.48439 17.8098 8.62225C18.0189 8.8876 18.0734 9.14385 17.8056 9.41476C17.6692 9.55262 17.2579 9.98796 17.1309 10.0957L16.9247 10.2796C16.713 10.485 16.5942 10.5665 16.3334 10.5665C16.02 10.5665 15.6535 10.0482 15.4604 9.92371C15.3851 9.97228 13.6354 11.6757 13.5754 11.7336L12.6229 12.6367C12.1693 13.074 11.2449 14.0056 10.6961 14.4061C10.348 14.66 9.8404 14.7901 9.40337 14.9656C9.0571 15.1047 8.71189 15.387 8.43225 15.6365C8.28377 15.769 7.46401 16.5893 7.38085 16.643C7.29953 16.5258 6.25155 15.5783 6.10858 15.4055C6.05323 15.3385 5.97742 15.2785 5.93623 15.2196C5.96037 15.1326 6.29877 14.8318 6.38455 14.7488C6.46718 14.6692 6.54194 14.6006 6.623 14.5197C6.66838 14.4741 6.68438 14.4438 6.7337 14.3967C7.88845 13.2959 7.5309 13.3282 8.06316 12.2962C8.09201 12.24 8.11274 12.2036 8.14763 12.1479C8.34988 11.8226 8.43986 11.8019 8.67123 11.5353C8.81104 11.3739 8.99861 11.2467 9.13344 11.0779C9.26145 10.9181 10.9852 9.30017 11.3527 8.91695C11.3905 8.87774 11.4241 8.8484 11.4639 8.80995C11.5851 8.69308 12.8039 7.52013 12.8569 7.44399C12.8228 7.38176 12.8175 7.38176 12.7656 7.33319C12.7194 7.28994 12.71 7.26945 12.6704 7.22619C12.6079 7.15789 12.5384 7.10199 12.4718 7.03496C12.371 6.93403 12.2588 6.82349 12.2383 6.67829C12.2157 6.51868 12.2323 6.34591 12.3259 6.22803C12.4311 6.09523 12.7971 5.74944 12.9085 5.64193C13.0206 5.53392 13.4041 5.16208 13.53 5.07784C13.6643 4.98804 13.9917 4.99487 14.152 5.10845C14.3332 5.23695 14.5392 5.51546 14.9203 5.51546C15.1595 5.51546 15.2991 5.42262 15.4552 5.29665C15.4982 5.26174 15.5344 5.22177 15.5751 5.18257C15.665 5.09555 15.7464 5.03282 15.8369 4.94529C16.0669 4.72345 16.3584 4.42749 16.6071 4.24916C16.9355 4.01341 17.1794 4 17.5711 4C17.8657 4 18.2531 4.15481 18.4724 4.34022C18.6563 4.49579 18.7345 4.57699 18.8678 4.81603C18.9407 4.94681 18.985 5.12312 18.9997 5.31385L19 5.3141Z" fill="#333237"/></g><defs><clipPath id="clip0_442_24093"><path fill="#fff" transform="translate(5 4)" d="M0 0H14V15H0z"/></clipPath></defs></svg>