<svg width="24" height="24" viewBox="0 0 24 24" fill="none" xmlns="http://www.w3.org/2000/svg"><circle cx="12" cy="12" r="11.25" stroke="#AF1241" stroke-width="1.5"/><path fill-rule="evenodd" clip-rule="evenodd" d="M7.45603 5C7.14765 5.12892 7.32342 5.0022 7.06889 5.298L6.20408 6.61553C5.84199 7.23333 5.497 7.8403 5.22913 8.60819C3.62469 13.2069 11.0211 13.2518 9.62743 8.77397C9.28447 7.67225 8.17387 5.63575 7.45603 5ZM17.6122 7.73631C16.9384 8.12214 15.7188 10.5311 15.3818 11.4456C14.7111 13.2663 15.9539 14.8928 17.6126 14.8842C19.2148 14.8758 20.4379 13.3288 19.8501 11.5483C19.4968 10.4779 18.9162 9.50626 18.3155 8.61188C18.1906 8.42594 18.111 8.28729 18.0095 8.14747L17.6122 7.73639V7.73631ZM11.6059 12.8651C11.3691 12.9974 11.5606 12.86 11.3884 13.0233C10.7274 13.6502 9.64617 15.8284 9.37821 16.6153C8.76566 18.414 9.90023 19.9924 11.6046 20C13.3036 20.0075 14.4197 18.4079 13.8319 16.6055C13.6115 15.93 12.312 13.2757 11.6059 12.865V12.8651Z" fill="#333237"/></svg>