<svg width="116" height="142" viewBox="0 0 116 142" fill="none" xmlns="http://www.w3.org/2000/svg"><path d="M1.38704 140.817C1.21222 141.03 0.897213 141.062 0.683456 140.887C0.4697 140.712 0.438138 140.397 0.61296 140.183L1.38704 140.817ZM115.5 0.499995L114.569 6.19796L110.1 2.54283L115.5 0.499995ZM2.52129 137.85C2.69612 137.636 3.01112 137.605 3.22488 137.78C3.43863 137.954 3.4702 138.269 3.29537 138.483L2.52129 137.85ZM7.11204 133.817C6.93722 134.03 6.62221 134.062 6.40846 133.887C6.1947 133.712 6.16314 133.397 6.33796 133.183L7.11204 133.817ZM10.1546 128.517C10.3294 128.303 10.6445 128.271 10.8582 128.446C11.072 128.621 11.1035 128.936 10.9287 129.15L10.1546 128.517ZM14.7454 124.483C14.5706 124.697 14.2555 124.729 14.0418 124.554C13.828 124.379 13.7965 124.064 13.9713 123.85L14.7454 124.483ZM17.788 119.183C17.9628 118.97 18.2778 118.938 18.4915 119.113C18.7053 119.288 18.7369 119.603 18.562 119.817L17.788 119.183ZM22.3787 115.15C22.2039 115.364 21.8889 115.395 21.6751 115.22C21.4614 115.046 21.4298 114.731 21.6046 114.517L22.3787 115.15ZM25.4213 109.85C25.5961 109.636 25.9111 109.605 26.1249 109.78C26.3386 109.954 26.3702 110.269 26.1954 110.483L25.4213 109.85ZM30.012 105.817C29.8372 106.03 29.5222 106.062 29.3085 105.887C29.0947 105.712 29.0631 105.397 29.238 105.183L30.012 105.817ZM33.0546 100.517C33.2294 100.303 33.5445 100.271 33.7582 100.446C33.972 100.621 34.0035 100.936 33.8287 101.15L33.0546 100.517ZM37.6454 96.4832C37.4706 96.697 37.1555 96.7285 36.9418 96.5537C36.728 96.3789 36.6965 96.0639 36.8713 95.8501L37.6454 96.4832ZM40.688 91.1835C40.8628 90.9697 41.1778 90.9381 41.3915 91.113C41.6053 91.2878 41.6369 91.6028 41.462 91.8165L40.688 91.1835ZM45.2787 87.1499C45.1039 87.3636 44.7889 87.3952 44.5751 87.2204C44.3614 87.0455 44.3298 86.7305 44.5046 86.5168L45.2787 87.1499ZM48.3213 81.8501C48.4961 81.6364 48.8111 81.6048 49.0249 81.7796C49.2386 81.9544 49.2702 82.2695 49.0954 82.4832L48.3213 81.8501ZM52.912 77.8165C52.7372 78.0303 52.4222 78.0619 52.2085 77.887C51.9947 77.7122 51.9631 77.3972 52.138 77.1835L52.912 77.8165ZM55.9546 72.5168C56.1294 72.303 56.4444 72.2715 56.6582 72.4463C56.872 72.6211 56.9035 72.9361 56.7287 73.1499L55.9546 72.5168ZM60.5454 68.4832C60.3705 68.697 60.0555 68.7285 59.8418 68.5537C59.628 68.3789 59.5965 68.0639 59.7713 67.8501L60.5454 68.4832ZM63.588 63.1835C63.7628 62.9697 64.0778 62.9381 64.2915 63.113C64.5053 63.2878 64.5369 63.6028 64.362 63.8165L63.588 63.1835ZM68.1787 59.1499C68.0039 59.3636 67.6889 59.3952 67.4751 59.2204C67.2614 59.0456 67.2298 58.7306 67.4046 58.5168L68.1787 59.1499ZM71.2213 53.8501C71.3961 53.6364 71.7111 53.6048 71.9249 53.7796C72.1386 53.9545 72.1702 54.2695 71.9954 54.4832L71.2213 53.8501ZM75.812 49.8166C75.6372 50.0303 75.3222 50.0619 75.1084 49.887C74.8947 49.7122 74.8631 49.3972 75.0379 49.1835L75.812 49.8166ZM78.8546 44.5168C79.0294 44.303 79.3444 44.2715 79.5582 44.4463C79.772 44.6211 79.8035 44.9361 79.6287 45.1499L78.8546 44.5168ZM83.4454 40.4832C83.2705 40.697 82.9555 40.7285 82.7418 40.5537C82.528 40.3789 82.4965 40.0639 82.6713 39.8501L83.4454 40.4832ZM86.4879 35.1835C86.6628 34.9697 86.9778 34.9381 87.1915 35.113C87.4053 35.2878 87.4368 35.6028 87.262 35.8166L86.4879 35.1835ZM91.0787 31.1499C90.9039 31.3636 90.5889 31.3952 90.3751 31.2204C90.1613 31.0456 90.1298 30.7306 90.3046 30.5168L91.0787 31.1499ZM94.1213 25.8501C94.2961 25.6364 94.6111 25.6048 94.8249 25.7796C95.0386 25.9545 95.0702 26.2695 94.8953 26.4832L94.1213 25.8501ZM98.712 21.8166C98.5372 22.0303 98.2222 22.0619 98.0084 21.8871C97.7947 21.7122 97.7631 21.3972 97.9379 21.1835L98.712 21.8166ZM101.755 16.5168C101.929 16.3031 102.244 16.2715 102.458 16.4463C102.672 16.6211 102.704 16.9361 102.529 17.1499L101.755 16.5168ZM106.345 12.4832C106.171 12.697 105.856 12.7286 105.642 12.5537C105.428 12.3789 105.396 12.0639 105.571 11.8502L106.345 12.4832ZM109.388 7.18348C109.563 6.96974 109.878 6.93817 110.092 7.11299C110.305 7.28781 110.337 7.60282 110.162 7.81657L109.388 7.18348ZM113.979 3.1499C113.804 3.36366 113.489 3.39523 113.275 3.22039C113.061 3.04557 113.03 2.73057 113.205 2.51681L113.979 3.1499ZM0.61296 140.183L2.52129 137.85L3.29537 138.483L1.38704 140.817L0.61296 140.183ZM6.33796 133.183L10.1546 128.517L10.9287 129.15L7.11204 133.817L6.33796 133.183ZM13.9713 123.85L17.788 119.183L18.562 119.817L14.7454 124.483L13.9713 123.85ZM21.6046 114.517L25.4213 109.85L26.1954 110.483L22.3787 115.15L21.6046 114.517ZM29.238 105.183L33.0546 100.517L33.8287 101.15L30.012 105.817L29.238 105.183ZM36.8713 95.8501L40.688 91.1835L41.462 91.8165L37.6454 96.4832L36.8713 95.8501ZM44.5046 86.5168L48.3213 81.8501L49.0954 82.4832L45.2787 87.1499L44.5046 86.5168ZM52.138 77.1835L55.9546 72.5168L56.7287 73.1499L52.912 77.8165L52.138 77.1835ZM59.7713 67.8501L63.588 63.1835L64.362 63.8165L60.5454 68.4832L59.7713 67.8501ZM67.4046 58.5168L71.2213 53.8501L71.9954 54.4832L68.1787 59.1499L67.4046 58.5168ZM75.0379 49.1835L78.8546 44.5168L79.6287 45.1499L75.812 49.8166L75.0379 49.1835ZM82.6713 39.8501L86.4879 35.1835L87.262 35.8166L83.4454 40.4832L82.6713 39.8501ZM90.3046 30.5168L94.1213 25.8501L94.8953 26.4832L91.0787 31.1499L90.3046 30.5168ZM97.9379 21.1835L101.755 16.5168L102.529 17.1499L98.712 21.8166L97.9379 21.1835ZM105.571 11.8502L109.388 7.18348L110.162 7.81657L106.345 12.4832L105.571 11.8502ZM1.77408 141.133C1.42444 141.561 0.794426 141.624 0.366913 141.274C-0.0606001 140.924 -0.123725 140.294 0.22592 139.867L1.77408 141.133ZM115.5 0.499995L113.638 11.8959L104.7 4.58567L115.5 0.499995ZM2.13425 137.534C2.4839 137.106 3.11391 137.043 3.54142 137.393C3.96893 137.742 4.03206 138.372 3.68241 138.8L2.13425 137.534ZM7.49908 134.133C7.14944 134.561 6.51943 134.624 6.09191 134.274C5.6644 133.924 5.60128 133.294 5.95092 132.867L7.49908 134.133ZM9.76758 128.2C10.1172 127.773 10.7472 127.71 11.1748 128.059C11.6023 128.409 11.6654 129.039 11.3157 129.466L9.76758 128.2ZM15.1324 124.8C14.7828 125.227 14.1528 125.29 13.7252 124.941C13.2977 124.591 13.2346 123.961 13.5843 123.534L15.1324 124.8ZM17.4009 118.867C17.7506 118.439 18.3806 118.376 18.8081 118.726C19.2356 119.076 19.2987 119.706 18.9491 120.133L17.4009 118.867ZM22.7657 115.466C22.4161 115.894 21.7861 115.957 21.3586 115.607C20.9311 115.258 20.8679 114.628 21.2176 114.2L22.7657 115.466ZM25.0343 109.534C25.3839 109.106 26.0139 109.043 26.4414 109.393C26.8689 109.742 26.9321 110.372 26.5824 110.8L25.0343 109.534ZM30.3991 106.133C30.0494 106.561 29.4194 106.624 28.9919 106.274C28.5644 105.924 28.5013 105.294 28.8509 104.867L30.3991 106.133ZM32.6676 100.2C33.0172 99.7727 33.6472 99.7096 34.0748 100.059C34.5023 100.409 34.5654 101.039 34.2157 101.466L32.6676 100.2ZM38.0324 96.7997C37.6828 97.2273 37.0528 97.2904 36.6252 96.9407C36.1977 96.5911 36.1346 95.9611 36.4843 95.5336L38.0324 96.7997ZM40.3009 90.8669C40.6506 90.4394 41.2806 90.3763 41.7081 90.7259C42.1356 91.0756 42.1987 91.7056 41.8491 92.1331L40.3009 90.8669ZM45.6657 87.4664C45.3161 87.8939 44.6861 87.9571 44.2586 87.6074C43.8311 87.2578 43.7679 86.6278 44.1176 86.2002L45.6657 87.4664ZM47.9343 81.5336C48.2839 81.1061 48.9139 81.0429 49.3414 81.3926C49.7689 81.7422 49.8321 82.3722 49.4824 82.7998L47.9343 81.5336ZM53.2991 78.1331C52.9494 78.5606 52.3194 78.6237 51.8919 78.2741C51.4644 77.9244 51.4013 77.2944 51.7509 76.8669L53.2991 78.1331ZM55.5676 72.2003C55.9172 71.7727 56.5472 71.7096 56.9747 72.0593C57.4023 72.4089 57.4654 73.0389 57.1157 73.4664L55.5676 72.2003ZM60.9324 68.7998C60.5828 69.2273 59.9527 69.2904 59.5252 68.9408C59.0977 68.5911 59.0346 67.9611 59.3842 67.5336L60.9324 68.7998ZM63.2009 62.8669C63.5506 62.4394 64.1806 62.3763 64.6081 62.7259C65.0356 63.0756 65.0987 63.7056 64.7491 64.1331L63.2009 62.8669ZM68.5657 59.4664C68.2161 59.8939 67.5861 59.9571 67.1586 59.6074C66.7311 59.2578 66.6679 58.6278 67.0176 58.2003L68.5657 59.4664ZM70.8342 53.5336C71.1839 53.1061 71.8139 53.043 72.2414 53.3926C72.6689 53.7422 72.732 54.3723 72.3824 54.7998L70.8342 53.5336ZM76.1991 50.1331C75.8494 50.5606 75.2194 50.6237 74.7919 50.2741C74.3644 49.9244 74.3013 49.2944 74.6509 48.8669L76.1991 50.1331ZM78.4676 44.2003C78.8172 43.7727 79.4472 43.7096 79.8747 44.0593C80.3023 44.4089 80.3654 45.0389 80.0157 45.4664L78.4676 44.2003ZM83.8324 40.7998C83.4828 41.2273 82.8527 41.2904 82.4252 40.9408C81.9977 40.5911 81.9346 39.9611 82.2842 39.5336L83.8324 40.7998ZM86.1009 34.8669C86.4505 34.4394 87.0806 34.3763 87.5081 34.7259C87.9356 35.0756 87.9987 35.7056 87.6491 36.1331L86.1009 34.8669ZM91.4657 31.4664C91.1161 31.894 90.4861 31.9571 90.0586 31.6074C89.631 31.2578 89.5679 30.6278 89.9176 30.2003L91.4657 31.4664ZM93.7342 25.5336C94.0839 25.1061 94.7139 25.043 95.1414 25.3926C95.5689 25.7422 95.632 26.3723 95.2824 26.7998L93.7342 25.5336ZM99.0991 22.1331C98.7494 22.5606 98.1194 22.6237 97.6919 22.2741C97.2644 21.9245 97.2013 21.2944 97.5509 20.8669L99.0991 22.1331ZM101.368 16.2003C101.717 15.7728 102.347 15.7096 102.775 16.0593C103.202 16.4089 103.265 17.0389 102.916 17.4664L101.368 16.2003ZM106.732 12.7998C106.383 13.2273 105.753 13.2904 105.325 12.9408C104.898 12.5911 104.835 11.9611 105.184 11.5336L106.732 12.7998ZM109.001 6.86694C109.351 6.43943 109.981 6.37631 110.408 6.72595C110.836 7.07559 110.899 7.70561 110.549 8.13311L109.001 6.86694ZM114.366 3.46644C114.016 3.89396 113.386 3.95709 112.959 3.60745C112.531 3.25779 112.468 2.62779 112.818 2.20027L114.366 3.46644ZM0.22592 139.867L2.13425 137.534L3.68241 138.8L1.77408 141.133L0.22592 139.867ZM5.95092 132.867L9.76758 128.2L11.3157 129.466L7.49908 134.133L5.95092 132.867ZM13.5843 123.534L17.4009 118.867L18.9491 120.133L15.1324 124.8L13.5843 123.534ZM21.2176 114.2L25.0343 109.534L26.5824 110.8L22.7657 115.466L21.2176 114.2ZM28.8509 104.867L32.6676 100.2L34.2157 101.466L30.3991 106.133L28.8509 104.867ZM36.4843 95.5336L40.3009 90.8669L41.8491 92.1331L38.0324 96.7997L36.4843 95.5336ZM44.1176 86.2002L47.9343 81.5336L49.4824 82.7998L45.6657 87.4664L44.1176 86.2002ZM51.7509 76.8669L55.5676 72.2003L57.1157 73.4664L53.2991 78.1331L51.7509 76.8669ZM59.3842 67.5336L63.2009 62.8669L64.7491 64.1331L60.9324 68.7998L59.3842 67.5336ZM67.0176 58.2003L70.8342 53.5336L72.3824 54.7998L68.5657 59.4664L67.0176 58.2003ZM74.6509 48.8669L78.4676 44.2003L80.0157 45.4664L76.1991 50.1331L74.6509 48.8669ZM82.2842 39.5336L86.1009 34.8669L87.6491 36.1331L83.8324 40.7998L82.2842 39.5336ZM89.9176 30.2003L93.7342 25.5336L95.2824 26.7998L91.4657 31.4664L89.9176 30.2003ZM97.5509 20.8669L101.368 16.2003L102.916 17.4664L99.0991 22.1331L97.5509 20.8669ZM105.184 11.5336L109.001 6.86694L110.549 8.13311L106.732 12.7998L105.184 11.5336Z" fill="#0075BD"/></svg>