<svg width="24" height="24" viewBox="0 0 24 24" fill="none" xmlns="http://www.w3.org/2000/svg"><path opacity=".5" d="M15.1053 11.0134L15.1053 11.0134C15.2365 11.1413 15.3105 11.3168 15.3105 11.5C15.3105 11.6832 15.2365 11.8587 15.1053 11.9866M15.1053 11.0134L8.94315 17.0449C9.20535 17.3137 9.6357 17.3189 9.90441 17.0569L15.1053 11.9866M15.1053 11.0134L9.90443 5.94305M15.1053 11.0134L9.90443 5.94305M15.1053 11.9866L14.9308 11.8076L15.1053 11.9866L15.1053 11.9866ZM9.90443 5.94305C9.90443 5.94305 9.90443 5.94305 9.90443 5.94305C9.63567 5.68103 9.20529 5.68639 8.94315 5.95511M9.90443 5.94305L8.94315 5.95511M8.94315 5.95511C8.68097 6.22387 8.68638 6.65422 8.95522 6.91631M8.94315 5.95511L8.95522 6.91631M8.95522 6.91631L13.6569 11.5M8.95522 6.91631L13.6569 11.5M13.6569 11.5L8.95522 16.0837C8.68639 16.3458 8.68097 16.7761 8.94314 17.0449L13.6569 11.5Z" fill="#000" stroke="#000" stroke-width=".5"/></svg>