<svg width="106" height="86" viewBox="0 0 106 86" fill="none" xmlns="http://www.w3.org/2000/svg"><path d="M1.31348 0.610472C1.09835 0.437343 0.783601 0.471392 0.610472 0.686523C0.437343 0.901653 0.471392 1.2164 0.686523 1.38953L1.31348 0.610472ZM106 85.5L103.915 80.1163L100.295 84.6142L106 85.5ZM3.07289 3.30998C3.28802 3.48311 3.60276 3.44906 3.77589 3.23393C3.94902 3.0188 3.91497 2.70406 3.69984 2.53093L3.07289 3.30998ZM8.47257 6.37184C8.25744 6.19871 7.94269 6.23276 7.76956 6.44789C7.59643 6.66302 7.63048 6.97776 7.84561 7.15089L8.47257 6.37184ZM12.6183 10.9918C12.8335 11.1649 13.1482 11.1309 13.3213 10.9157C13.4945 10.7006 13.4604 10.3859 13.2453 10.2127L12.6183 10.9918ZM18.018 14.0537C17.8029 13.8805 17.4881 13.9146 17.315 14.1297C17.1419 14.3448 17.1759 14.6596 17.3911 14.8327L18.018 14.0537ZM22.1638 18.6736C22.3789 18.8467 22.6937 18.8127 22.8668 18.5976C23.0399 18.3824 23.0059 18.0677 22.7908 17.8946L22.1638 18.6736ZM27.5635 21.7355C27.3483 21.5623 27.0336 21.5964 26.8605 21.8115C26.6873 22.0267 26.7214 22.3414 26.9365 22.5145L27.5635 21.7355ZM31.7093 26.3554C31.9244 26.5286 32.2391 26.4945 32.4123 26.2794C32.5854 26.0643 32.5513 25.7495 32.3362 25.5764L31.7093 26.3554ZM37.1089 29.4173C36.8938 29.2442 36.5791 29.2782 36.4059 29.4933C36.2328 29.7085 36.2668 30.0232 36.482 30.1963L37.1089 29.4173ZM41.2547 34.0373C41.4698 34.2104 41.7846 34.1763 41.9577 33.9612C42.1308 33.7461 42.0968 33.4313 41.8817 33.2582L41.2547 34.0373ZM46.6544 37.0991C46.4393 36.926 46.1245 36.96 45.9514 37.1752C45.7783 37.3903 45.8123 37.705 46.0274 37.8782L46.6544 37.0991ZM50.8002 41.7191C51.0153 41.8922 51.33 41.8581 51.5032 41.643C51.6763 41.4279 51.6422 41.1131 51.4271 40.94L50.8002 41.7191ZM56.1998 44.7809C55.9847 44.6078 55.67 44.6418 55.4968 44.857C55.3237 45.0721 55.3578 45.3869 55.5729 45.56L56.1998 44.7809ZM60.3456 49.4009C60.5607 49.574 60.8755 49.54 61.0486 49.3248C61.2217 49.1097 61.1877 48.795 60.9726 48.6218L60.3456 49.4009ZM65.7453 52.4627C65.5302 52.2896 65.2154 52.3237 65.0423 52.5388C64.8692 52.7539 64.9032 53.0687 65.1183 53.2418L65.7453 52.4627ZM69.8911 57.0827C70.1062 57.2558 70.4209 57.2218 70.5941 57.0067C70.7672 56.7915 70.7332 56.4768 70.518 56.3037L69.8911 57.0827ZM75.2908 60.1446C75.0756 59.9714 74.7609 60.0055 74.5878 60.2206C74.4146 60.4357 74.4487 60.7505 74.6638 60.9236L75.2908 60.1446ZM79.4365 64.7645C79.6517 64.9377 79.9664 64.9036 80.1395 64.6885C80.3127 64.4733 80.2786 64.1586 80.0635 63.9855L79.4365 64.7645ZM84.8362 67.8264C84.6211 67.6533 84.3063 67.6873 84.1332 67.9024C83.9601 68.1176 83.9941 68.4323 84.2092 68.6054L84.8362 67.8264ZM88.982 72.4464C89.1971 72.6195 89.5119 72.5854 89.685 72.3703C89.8581 72.1552 89.8241 71.8404 89.6089 71.6673L88.982 72.4464ZM94.3817 75.5082C94.1665 75.3351 93.8518 75.3691 93.6787 75.5843C93.5055 75.7994 93.5396 76.1141 93.7547 76.2873L94.3817 75.5082ZM98.5274 80.1282C98.7426 80.3013 99.0573 80.2672 99.2304 80.0521C99.4036 79.837 99.3695 79.5222 99.1544 79.3491L98.5274 80.1282ZM103.927 83.19C103.712 83.0169 103.397 83.0509 103.224 83.2661C103.051 83.4812 103.085 83.796 103.3 83.9691L103.927 83.19ZM0.686523 1.38953L3.07289 3.30998L3.69984 2.53093L1.31348 0.610472L0.686523 1.38953ZM7.84561 7.15089L12.6183 10.9918L13.2453 10.2127L8.47257 6.37184L7.84561 7.15089ZM17.3911 14.8327L22.1638 18.6736L22.7908 17.8946L18.018 14.0537L17.3911 14.8327ZM26.9365 22.5145L31.7093 26.3554L32.3362 25.5764L27.5635 21.7355L26.9365 22.5145ZM36.482 30.1963L41.2547 34.0373L41.8817 33.2582L37.1089 29.4173L36.482 30.1963ZM46.0274 37.8782L50.8002 41.7191L51.4271 40.94L46.6544 37.0991L46.0274 37.8782ZM55.5729 45.56L60.3456 49.4009L60.9726 48.6218L56.1998 44.7809L55.5729 45.56ZM65.1183 53.2418L69.8911 57.0827L70.518 56.3037L65.7453 52.4627L65.1183 53.2418ZM74.6638 60.9236L79.4365 64.7645L80.0635 63.9855L75.2908 60.1446L74.6638 60.9236ZM84.2092 68.6054L88.982 72.4464L89.6089 71.6673L84.8362 67.8264L84.2092 68.6054ZM93.7547 76.2873L98.5274 80.1282L99.1544 79.3491L94.3817 75.5082L93.7547 76.2873ZM1.62695 0.220944C1.19669 -0.125313 0.567202 -0.0572152 0.220944 0.373046C-0.125313 0.803306 -0.0572152 1.4328 0.373046 1.77906L1.62695 0.220944ZM106 85.5L101.829 74.7326L94.5897 83.7283L106 85.5ZM2.75941 3.69951C3.18967 4.04577 3.81916 3.97767 4.16542 3.54741C4.51168 3.11715 4.44358 2.48766 4.01332 2.1414L2.75941 3.69951ZM8.78605 5.98231C8.35578 5.63605 7.72629 5.70415 7.38004 6.13441C7.03378 6.56467 7.10188 7.19416 7.53214 7.54042L8.78605 5.98231ZM12.3049 11.3813C12.7351 11.7276 13.3646 11.6595 13.7109 11.2292C14.0571 10.799 13.989 10.1695 13.5588 9.82322L12.3049 11.3813ZM18.3315 13.6641C17.9012 13.3179 17.2717 13.386 16.9255 13.8162C16.5792 14.2465 16.6473 14.876 17.0776 15.2222L18.3315 13.6641ZM21.8503 19.0631C22.2806 19.4094 22.9101 19.3413 23.2563 18.911C23.6026 18.4808 23.5345 17.8513 23.1042 17.505L21.8503 19.0631ZM27.877 21.3459C27.4467 20.9997 26.8172 21.0678 26.4709 21.498C26.1247 21.9283 26.1928 22.5578 26.623 22.9041L27.877 21.3459ZM31.3958 26.745C31.826 27.0912 32.4555 27.0231 32.8018 26.5929C33.148 26.1626 33.0799 25.5331 32.6497 25.1869L31.3958 26.745ZM37.4224 29.0278C36.9921 28.6815 36.3627 28.7496 36.0164 29.1799C35.6701 29.6101 35.7382 30.2396 36.1685 30.5859L37.4224 29.0278ZM40.9412 34.4268C41.3715 34.773 42.001 34.7049 42.3472 34.2747C42.6935 33.8444 42.6254 33.2149 42.1951 32.8687L40.9412 34.4268ZM46.9679 36.7096C46.5376 36.3633 45.9081 36.4314 45.5619 36.8617C45.2156 37.2919 45.2837 37.9214 45.714 38.2677L46.9679 36.7096ZM50.4867 42.1086C50.9169 42.4549 51.5464 42.3868 51.8927 41.9565C52.2389 41.5262 52.1709 40.8967 51.7406 40.5505L50.4867 42.1086ZM56.5133 44.3914C56.0831 44.0451 55.4536 44.1132 55.1073 44.5435C54.761 44.9738 54.8291 45.6033 55.2594 45.9495L56.5133 44.3914ZM60.0321 49.7904C60.4624 50.1367 61.0919 50.0686 61.4381 49.6383C61.7844 49.2081 61.7163 48.5786 61.286 48.2323L60.0321 49.7904ZM66.0588 52.0732C65.6285 51.727 64.999 51.7951 64.6528 52.2253C64.3065 52.6556 64.3746 53.2851 64.8049 53.6313L66.0588 52.0732ZM69.5776 57.4722C70.0079 57.8185 70.6373 57.7504 70.9836 57.3201C71.3299 56.8899 71.2618 56.2604 70.8315 55.9141L69.5776 57.4722ZM75.6042 59.755C75.174 59.4088 74.5445 59.4769 74.1982 59.9071C73.852 60.3374 73.9201 60.9669 74.3503 61.3131L75.6042 59.755ZM79.123 65.1541C79.5533 65.5003 80.1828 65.4322 80.5291 65.002C80.8753 64.5717 80.8072 63.9422 80.377 63.5959L79.123 65.1541ZM85.1497 67.4369C84.7194 67.0906 84.0899 67.1587 83.7437 67.589C83.3974 68.0192 83.4655 68.6487 83.8958 68.995L85.1497 67.4369ZM88.6685 72.8359C89.0988 73.1821 89.7283 73.114 90.0745 72.6838C90.4208 72.2535 90.3527 71.624 89.9224 71.2778L88.6685 72.8359ZM94.6951 75.1187C94.2649 74.7724 93.6354 74.8405 93.2891 75.2708C92.9429 75.701 93.011 76.3305 93.4412 76.6768L94.6951 75.1187ZM98.214 80.5177C98.6442 80.864 99.2737 80.7959 99.62 80.3656C99.9662 79.9353 99.8981 79.3058 99.4679 78.9596L98.214 80.5177ZM104.241 82.8005C103.81 82.4542 103.181 82.5223 102.835 82.9526C102.488 83.3829 102.556 84.0124 102.987 84.3586L104.241 82.8005ZM0.373046 1.77906L2.75941 3.69951L4.01332 2.1414L1.62695 0.220944L0.373046 1.77906ZM7.53214 7.54042L12.3049 11.3813L13.5588 9.82322L8.78605 5.98231L7.53214 7.54042ZM17.0776 15.2222L21.8503 19.0631L23.1042 17.505L18.3315 13.6641L17.0776 15.2222ZM26.623 22.9041L31.3958 26.745L32.6497 25.1869L27.877 21.3459L26.623 22.9041ZM36.1685 30.5859L40.9412 34.4268L42.1951 32.8687L37.4224 29.0278L36.1685 30.5859ZM45.714 38.2677L50.4867 42.1086L51.7406 40.5505L46.9679 36.7096L45.714 38.2677ZM55.2594 45.9495L60.0321 49.7904L61.286 48.2323L56.5133 44.3914L55.2594 45.9495ZM64.8049 53.6313L69.5776 57.4722L70.8315 55.9141L66.0588 52.0732L64.8049 53.6313ZM74.3503 61.3131L79.123 65.1541L80.377 63.5959L75.6042 59.755L74.3503 61.3131ZM83.8958 68.995L88.6685 72.8359L89.9224 71.2778L85.1497 67.4369L83.8958 68.995ZM93.4412 76.6768L98.214 80.5177L99.4679 78.9596L94.6951 75.1187L93.4412 76.6768Z" fill="#0075BD"/></svg>