<svg width="45" height="12" viewBox="0 0 45 12" fill="none" xmlns="http://www.w3.org/2000/svg"><path d="M1 5.5C0.723858 5.5 0.5 5.72386 0.5 6C0.5 6.27614 0.723858 6.5 1 6.5L1 5.5ZM45 6L40 3.11325L40 8.88675L45 6ZM3.75 6.5C4.02614 6.5 4.25 6.27614 4.25 6C4.25 5.72386 4.02614 5.5 3.75 5.5L3.75 6.5ZM9.25 5.5C8.97386 5.5 8.75 5.72386 8.75 6C8.75 6.27614 8.97386 6.5 9.25 6.5L9.25 5.5ZM14.75 6.5C15.0261 6.5 15.25 6.27614 15.25 6C15.25 5.72386 15.0261 5.5 14.75 5.5L14.75 6.5ZM20.25 5.5C19.9739 5.5 19.75 5.72386 19.75 6C19.75 6.27614 19.9739 6.5 20.25 6.5L20.25 5.5ZM25.75 6.5C26.0261 6.5 26.25 6.27614 26.25 6C26.25 5.72386 26.0261 5.5 25.75 5.5L25.75 6.5ZM31.25 5.5C30.9739 5.5 30.75 5.72386 30.75 6C30.75 6.27614 30.9739 6.5 31.25 6.5L31.25 5.5ZM36.75 6.5C37.0261 6.5 37.25 6.27614 37.25 6C37.25 5.72385 37.0261 5.5 36.75 5.5L36.75 6.5ZM42.25 5.5C41.9739 5.5 41.75 5.72385 41.75 6C41.75 6.27614 41.9739 6.5 42.25 6.5L42.25 5.5ZM1 6.5L3.75 6.5L3.75 5.5L1 5.5L1 6.5ZM9.25 6.5L14.75 6.5L14.75 5.5L9.25 5.5L9.25 6.5ZM20.25 6.5L25.75 6.5L25.75 5.5L20.25 5.5L20.25 6.5ZM31.25 6.5L36.75 6.5L36.75 5.5L31.25 5.5L31.25 6.5ZM1 5C0.447715 5 -4.82823e-08 5.44772 0 6C4.82823e-08 6.55228 0.447715 7 1 7L1 5ZM45 6L35 0.226494L35 11.7735L45 6ZM3.75 7C4.30228 7 4.75 6.55228 4.75 6C4.75 5.44771 4.30228 5 3.75 5L3.75 7ZM9.25 5C8.69772 5 8.25 5.44771 8.25 6C8.25 6.55228 8.69772 7 9.25 7L9.25 5ZM14.75 7C15.3023 7 15.75 6.55228 15.75 6C15.75 5.44771 15.3023 5 14.75 5L14.75 7ZM20.25 5C19.6977 5 19.25 5.44771 19.25 6C19.25 6.55228 19.6977 7 20.25 7L20.25 5ZM25.75 7C26.3023 7 26.75 6.55228 26.75 6C26.75 5.44771 26.3023 5 25.75 5L25.75 7ZM31.25 5C30.6977 5 30.25 5.44771 30.25 6C30.25 6.55228 30.6977 7 31.25 7L31.25 5ZM36.75 7C37.3023 7 37.75 6.55228 37.75 6C37.75 5.44771 37.3023 5 36.75 5L36.75 7ZM42.25 5C41.6977 5 41.25 5.44771 41.25 6C41.25 6.55228 41.6977 7 42.25 7L42.25 5ZM1 7L3.75 7L3.75 5L1 5L1 7ZM9.25 7L14.75 7L14.75 5L9.25 5L9.25 7ZM20.25 7L25.75 7L25.75 5L20.25 5L20.25 7ZM31.25 7L36.75 7L36.75 5L31.25 5L31.25 7Z" fill="#0075BD"/></svg>