<svg width="34" height="49" viewBox="0 0 34 49" fill="none" xmlns="http://www.w3.org/2000/svg"><g clip-path="url(#clip0_389_23822)" fill-rule="evenodd" clip-rule="evenodd"><path d="M18.9588 34.3075C18.9909 34.1473 18.9947 33.9833 18.972 33.8232C19.0249 34.0305 19.0287 34.2453 18.9871 34.4545C18.8417 35.0689 18.5772 35.623 18.2259 36.1507C18.2561 36.5012 18.3128 36.7933 18.3128 37.027C18.3128 37.436 18.0483 37.6112 18.2259 37.8185C18.4299 38.0221 18.8417 38.1672 18.8114 38.4895C18.8114 38.6647 18.7831 38.8098 18.666 38.9286C18.5716 38.8928 18.4714 38.872 18.3713 38.8702C18.2297 38.9832 18.0559 39.0454 17.8746 39.0454H17.7272C17.7159 39.0925 17.7083 39.134 17.7046 39.1773L17.6101 39.1623C17.7858 38.2671 17.8746 37.3549 17.8746 36.4428C18.3713 35.8284 18.7529 35.0972 18.9588 34.3075ZM19.7748 23.8743L19.7786 24.1004C20.6588 24.5998 21.0989 24.7732 21.3614 24.7732C21.6542 24.7732 22.1246 24.5697 23.0331 24.4811C23.9398 24.3944 24.7898 24.6281 24.9673 24.5395C25.1128 24.4528 25.143 24.1607 25.143 24.1607C24.8767 23.8799 24.65 23.5652 24.4687 23.2241C24.4403 22.5814 24.4687 21.967 24.5272 21.3225C24.3251 21.5468 24.1476 21.7918 23.9983 22.0537C23.9114 22.2592 23.7358 22.8735 23.5016 22.932C23.2673 22.9885 22.8574 22.785 22.7989 22.1404C22.7403 21.4997 22.7989 20.0372 22.7403 19.6263C22.6516 19.2174 22.5042 18.8084 23.0048 18.6332C23.5016 18.4579 24.4101 18.4277 24.7331 18.2242C25.0542 18.0188 25.4074 17.9019 25.7871 17.8718C25.9609 17.8642 26.1328 17.9057 26.2858 17.9886C26.843 17.6965 27.4871 17.5797 28.1029 17.6682C28.7489 17.6682 29.393 17.8435 29.9786 18.1658C29.9786 18.1658 30.5074 17.4345 31.0042 17.6381C31.5029 17.8435 32.8818 18.9253 33.3786 19.2475C33.8772 19.5679 34.0831 19.5981 33.9074 20.0372C33.7318 20.4744 32.6173 21.8785 32.5286 22.376C32.4417 22.8735 32.3246 23.2241 32.0601 23.1958C31.7957 23.1657 31.4746 22.3176 31.4746 22.3176C31.4746 22.7567 31.3858 23.2241 31.2403 23.633C31.0326 23.9553 30.3903 24.336 30.5074 24.4811C30.5074 25.2123 30.4772 25.3876 30.7114 25.7099C30.8286 25.8852 30.9173 26.0604 30.9759 26.2658L30.7417 26.0604C30.7417 26.0604 30.4772 26.0906 30.7983 26.5297C31.1213 26.9669 31.3272 27.1139 31.3574 27.3778C31.3574 27.3778 31.1818 27.2006 31.093 27.1705C31.093 27.5813 31.1818 27.9903 31.2989 28.371C31.5029 28.8987 31.62 29.4829 31.6502 30.0388C31.5917 30.3592 31.2989 30.6815 31.3291 30.8285C31.3574 31.0038 31.5917 31.0622 31.5917 31.0622C31.5067 31.0923 31.4122 31.0923 31.3272 31.0622C31.3858 31.4712 31.4443 31.9103 31.5331 32.3192C31.6521 32.7452 31.62 33.1993 31.4443 33.6064C31.1516 34.1907 30.9759 34.8352 30.9759 35.5061C31.0326 36.2977 31.2403 36.4126 31.2403 36.7933C31.2403 37.174 31.0628 37.4077 31.3574 37.6998C31.6219 37.9919 32.1489 38.6063 32.2943 38.7232C32.4114 38.84 32.5002 38.7816 32.6154 39.0435C32.674 39.2132 32.7042 39.3922 32.7042 39.5712C32.7042 39.7503 32.6759 39.396 32.5871 39.396H32.2943C32.3246 39.4544 32.3529 39.543 32.3246 39.6297L32.2943 39.7182C32.2943 39.7182 32.2074 39.5712 32.1187 39.5712C32.0318 39.5712 31.9128 39.7767 31.62 39.6598C31.4746 39.6014 31.3858 39.543 31.2687 39.4845C31.2687 39.4845 31.416 39.7182 31.3574 39.7767C31.3272 39.7182 31.2687 39.6598 31.2101 39.6598C30.9173 39.7163 30.6246 39.6598 30.3601 39.543C29.92 39.3375 29.92 39.1905 29.7746 39.1321C29.6272 39.1038 29.3628 39.1321 29.2457 38.8683C29.1871 38.6176 29.1871 38.3594 29.2457 38.1088C29.3628 37.6772 29.3628 37.2249 29.2457 36.7933C29.0417 36.4126 29.1002 36.3259 29.189 35.9452C29.3042 35.4175 29.2457 34.8917 29.0417 34.3961C28.7772 33.9268 28.7489 31.9687 28.7489 31.9687C28.5071 32.2627 28.2427 32.536 27.9556 32.7866C27.6344 33.0203 27.2529 33.107 27.1358 33.254C27.1358 33.254 27.0791 33.0505 27.0187 33.0806C26.6182 33.1145 26.2159 33.1032 25.8173 33.0505C25.6417 33.3708 25.4962 33.7515 25.4358 34.1322C25.4943 34.4243 25.5529 34.7165 25.67 34.9803C25.7286 35.3007 25.8759 35.623 26.0818 35.917C26.2858 36.1808 26.52 36.3542 26.8128 36.471C27.2246 36.7066 27.1943 36.9686 27.1943 36.9686C27.1943 36.9686 27.1943 37.321 26.9299 37.2607C26.9016 37.3775 26.843 37.4944 26.7542 37.5547C26.6371 37.6112 25.993 37.436 25.993 37.436C25.993 37.436 26.0516 37.6131 25.6114 37.6131C25.3224 37.5867 25.041 37.4982 24.7917 37.3493C24.667 37.5283 24.6236 37.7526 24.6746 37.9637C24.6746 38.3142 24.82 38.6063 25.0542 38.84C25.2658 38.9927 25.4358 39.1924 25.5529 39.4242C25.5604 39.6165 25.5189 39.8068 25.4358 39.9802L25.3187 40.2158L25.143 40.0989C25.0297 40.1008 24.9182 40.0707 24.8219 40.0103C24.7256 39.95 24.6141 40.3025 24.4687 40.3025L24.3818 40.4777L24.1457 40.2742C23.9341 40.3326 23.7131 40.3326 23.5016 40.2742C23.4373 40.3326 23.3542 40.3628 23.2673 40.3609L23.0917 40.5663L23.0029 40.391C22.7913 40.4231 22.576 40.359 22.4173 40.2158C22.1831 40.0103 22.3588 39.543 22.2417 39.3677C22.1246 39.1905 21.9206 39.0756 22.0943 38.84C22.3588 38.3142 22.5344 37.6998 22.5344 37.0873C22.4759 36.5596 22.3871 35.5645 22.3286 35.0689C22.2152 34.3527 22.1756 33.6272 22.2114 32.9035C22.2379 32.8375 22.2511 32.7678 22.2511 32.6962C22.2511 32.4643 22.1076 32.2552 21.8903 32.1722C21.6542 32.0855 20.7457 31.9687 20.3943 31.588C20.366 31.5578 20.3377 31.5578 20.3074 31.5578C20.1261 31.7293 19.9599 31.9159 19.8088 32.1138C19.3989 32.5529 18.7831 32.7282 18.666 33.0505C18.6547 33.0599 18.6471 33.0731 18.6433 33.0882L18.6358 33.0806C18.496 32.8036 18.3694 32.5209 18.2542 32.2325C18.139 31.9442 18.4903 30.5929 18.666 29.5112C18.7982 28.8836 18.7378 28.2315 18.4903 27.6397C18.4016 27.3193 18.7246 26.9387 19.0457 26.4713C19.4763 25.6703 19.7351 24.7864 19.7748 23.8743Z" fill="#9B9B9B"/><path d="M18.2542 32.2324C18.2542 32.2324 18.4903 30.5928 18.666 29.5129C18.8001 28.8853 18.7378 28.2314 18.4903 27.6396C18.4016 27.3192 18.7246 26.9385 19.0457 26.4711C19.482 25.6721 19.7313 24.7844 19.7748 23.8741C19.7691 23.0261 19.5916 22.1893 19.2516 21.4109C19.0268 20.9021 18.887 20.3574 18.8417 19.8034C18.6358 16.967 16.8772 13.6313 16.8772 13.6313L16.8867 13.5031C16.8829 13.4974 16.881 13.4899 16.8772 13.4843C16.8735 13.4786 17.0831 10.9118 17.1983 9.85826C17.221 9.71126 17.2361 9.56614 17.2437 9.41914C17.2437 9.32679 17.2493 9.23445 17.2437 9.1421C17.2286 8.84999 17.1832 8.56164 17.1115 8.27895L17.1228 8.18472C17.119 8.16587 17.1171 8.14891 17.1115 8.13195C17.1946 7.58164 17.2002 7.03133 17.1492 6.47914C17.1266 6.28879 17.0963 6.09845 17.0548 5.90999C17.0605 5.91941 17.0718 5.92883 17.0793 5.93826C17.0699 5.88172 17.0642 5.82141 17.0529 5.76487C17.17 5.90999 17.3173 6.05699 17.4647 6.17383C17.7178 6.35099 18.0786 6.50364 18.2108 6.46783C18.0823 6.11729 17.9293 5.77429 17.7575 5.4426C17.7348 5.36722 17.731 5.28618 17.7423 5.20891C17.6989 4.86026 18.0162 4.35141 18.3128 3.54103C18.4318 3.25456 18.4866 2.95679 18.4903 2.65714C18.4771 2.32545 18.3959 2.0013 18.2542 1.70164C18.1201 1.3021 17.7027 1.06087 17.2871 1.14568C16.7658 1.11364 16.2577 0.97418 15.793 0.736718C15.2943 0.501141 15.0903 0.646257 14.5615 0.619872C14.1818 0.619872 13.8286 0.531295 13.5075 0.356026C13.1259 0.180757 13.0673 0.412564 12.8917 0.531295C12.716 0.619872 12.6272 0.619872 12.3061 0.736718C12.0115 0.853564 11.9831 1.02883 11.7772 1.02883C11.1331 1.14568 10.4871 1.29268 9.87135 1.52637C9.46146 1.64322 9.08179 1.79022 8.70024 2.02203C8.15057 2.08799 7.61412 2.24818 7.11735 2.4913C6.88312 2.54783 6.67724 2.3443 6.17857 2.31603C5.68179 2.25572 5.32857 3.28095 4.97724 3.63149C4.6259 3.98203 3.27724 4.88853 2.54435 5.47276C2.28746 5.68006 2.18168 5.87229 2.1609 6.04945C2.19868 6.33214 2.41779 6.59033 2.51601 6.81837C2.72001 7.31591 3.01468 7.75503 3.42268 8.10556C3.89301 8.48626 4.33312 8.92349 4.71468 9.39276C5.00746 9.77156 5.12457 10.2691 5.38712 10.3859C5.65157 10.5028 6.3259 9.21749 6.3259 9.21749C6.3259 9.82999 6.35424 10.4444 6.47324 11.0588C6.50157 11.6147 6.64701 12.1405 6.88312 12.5212L6.86046 12.5627C6.8869 12.6173 6.91146 12.6739 6.94168 12.7266C6.94168 12.7266 6.0029 14.4228 5.65157 15.2407C5.33046 16.0323 5.21146 16.8803 5.27001 17.7567C5.21335 18.4879 4.12724 23.2824 3.89301 23.9269C3.62857 24.628 3.48312 25.3592 3.4529 26.1206C3.39624 26.9969 3.4529 27.6094 3.04301 27.992C2.54435 28.5178 2.0759 29.0738 1.66412 29.6882C1.19568 30.3308 0.933125 31.0621 0.844347 31.8517C0.698903 32.4077 0.464681 32.9636 0.141681 33.4593C-0.179431 34.0737 0.141681 34.7465 0.198347 35.8584C0.217236 36.1958 0.273903 36.4653 0.349458 36.7065C0.534569 37.155 0.812236 37.4999 1.07857 37.9635C1.37135 38.4912 1.7529 38.9869 2.13446 39.4543C2.1269 39.4901 2.12501 39.524 2.11557 39.5598C2.1439 39.5918 2.16657 39.6276 2.19301 39.6597C2.10613 40.0291 2.09857 40.3984 2.17412 40.7565C2.19301 40.8093 2.20246 40.8639 2.22324 40.9167C2.48768 41.2974 2.69168 41.7083 2.89568 42.1455V42.2284L2.95424 42.3509V43.0237C2.99201 43.1896 3.03357 43.3554 3.07701 43.5213C3.11857 43.6588 3.1639 43.7964 3.21868 43.9302L3.20735 43.9491L3.27724 44.1338C3.19035 44.2808 3.10157 44.3976 3.01279 44.5144C2.74835 44.8348 2.48579 45.1873 2.28179 45.5378C2.01735 46.0052 1.81146 46.4726 1.60746 46.9399C1.72646 47.0606 1.95879 47.1171 1.95879 47.1171C1.96824 47.1868 1.98713 47.2566 2.01546 47.3225C2.06268 47.4413 2.14579 47.543 2.25157 47.6146C2.54435 47.8483 3.07324 47.5562 3.07324 47.5562C3.34335 47.7258 3.66257 47.7974 3.9799 47.7598C4.53713 47.7315 5.12457 47.3508 5.21146 47.4394C5.32857 47.5261 5.79701 47.4676 6.15024 47.1454C6.50157 46.8533 6.38446 45.9769 6.44301 45.6848C6.50724 45.1986 6.64512 44.7255 6.8529 44.2808C7.05879 43.9302 6.97001 43.9302 6.97001 43.6362C6.97001 43.3441 7.14568 41.3276 7.14568 41.3276C7.14568 41.3276 7.23446 41.1504 7.61601 41.3841C7.96735 41.6197 9.02324 41.4143 9.55024 41.239C9.8789 41.0279 10.1037 40.6868 10.166 40.3023C10.5457 40.1855 10.897 40.0102 11.2502 39.8349C11.7772 39.5428 12.2457 39.2206 12.716 38.8418C12.716 38.8418 12.9049 39.1131 12.9238 39.3223C12.971 39.4279 13.0031 39.5447 12.9805 39.6314L12.9748 39.6653C13.0352 39.7275 13.1353 39.7728 13.243 39.8349C13.4489 39.9518 14.8845 40.3909 14.8845 40.3909L14.8542 40.5681L14.943 40.5963L14.7673 41.6479C14.7957 42.2378 14.8788 42.8258 15.0148 43.3893C15.079 43.5778 15.1395 43.7681 15.1905 43.9623C15.2641 44.2073 15.3302 44.4579 15.3831 44.7199C15.3737 44.7821 15.3718 44.8461 15.3793 44.9083C15.453 45.1043 15.5947 45.2721 15.793 45.3606C16.1292 45.4549 16.4881 45.4436 16.8187 45.3324C17.1133 45.5604 17.4722 45.6942 17.8443 45.7131C18.5187 45.7715 18.4601 45.5076 18.4601 45.5076C18.7246 45.6264 19.0173 45.6264 19.2818 45.5679C19.5066 45.4963 19.5425 45.3248 19.5179 45.1665C19.5009 45.1232 19.4801 45.0817 19.4575 45.0403L19.4877 45.0365C19.4499 44.9234 19.397 44.8367 19.397 44.8367C19.5047 44.8235 19.6048 44.7839 19.6917 44.7199C19.7805 44.6068 19.7502 44.4146 19.6936 44.1997L19.6917 44.1922C19.3857 43.7022 19.0098 43.2593 18.5772 42.8767C18.3392 42.6034 18.1598 42.2849 18.0483 41.9401L18.0767 41.9514C18.0446 41.8816 18.0162 41.81 17.9917 41.7365C18.3713 41.9118 18.7529 42.0569 19.1345 42.1756C19.3687 42.2039 19.6029 42.1756 19.8088 42.0871C20.043 42.1756 20.2772 42.2039 20.5417 42.2341C20.893 42.2623 20.893 42.0871 20.893 42.0871C21.0838 42.1398 21.284 42.1493 21.4786 42.1153C21.5088 42.0588 21.5371 41.9401 21.5371 41.9401H21.5957C21.6845 41.9702 21.7732 41.9118 21.7732 41.8232V41.778C21.5957 41.4274 21.3898 41.0901 21.1575 40.7716C20.893 40.3909 20.3641 40.2741 19.8957 39.9235C19.1836 39.6352 18.4337 39.4486 17.6687 39.3676C17.6876 39.2978 17.6951 39.2356 17.7027 39.1753L17.6101 39.1621C17.7858 38.2669 17.8746 37.3548 17.8746 36.4426C18.3713 35.8283 18.7529 35.097 18.9588 34.3074C18.9909 34.1472 18.9947 33.9832 18.972 33.823C18.9172 33.6025 18.8115 33.399 18.666 33.2256C18.666 33.1973 18.6358 33.1691 18.6358 33.1389C18.6358 33.1219 18.6377 33.105 18.6433 33.0899L18.6358 33.0805C18.496 32.8034 18.3695 32.5208 18.2542 32.2324Z" fill="#A6022F"/></g><defs><clipPath id="clip0_389_23822"><path fill="#fff" d="M0 0H34V49H0z"/></clipPath></defs></svg>