<svg width="47" height="42" viewBox="0 0 47 42" fill="none" xmlns="http://www.w3.org/2000/svg"><path fill-rule="evenodd" clip-rule="evenodd" d="M17.6449 26.5115C17.9783 26.7781 18.2449 27.1115 18.5116 27.3781L19.3783 28.2448L19.4449 28.3115L19.5116 28.3781C19.9116 28.5781 20.3783 28.7781 20.8449 28.9781C20.8449 28.9781 21.7116 29.3115 21.7783 29.3115C21.9116 29.0448 22.1116 28.5781 22.3116 28.3781L21.4449 28.2448C21.3783 28.1781 21.2449 28.1781 21.1116 28.1781L19.9116 27.7781L19.0449 27.0448C18.7116 26.7781 18.4449 26.5115 18.0449 26.2448C17.9116 26.1781 17.7783 26.0448 17.6449 26.1781C17.5116 26.2448 17.5116 26.3781 17.6449 26.5115C17.5783 26.5115 17.5783 26.4448 17.6449 26.5115Z" fill="#B20838"/><path fill-rule="evenodd" clip-rule="evenodd" d="M26.7115 22.3114C26.8448 22.3781 27.0448 22.4447 27.1782 22.4447C27.3115 22.5114 27.4448 22.5781 27.5782 22.6447C27.8448 22.7781 28.1115 22.9781 28.3782 23.1781C28.5782 23.3781 28.8448 23.5781 29.0448 23.7781C29.1115 23.9114 29.2448 23.9781 29.3115 24.1114C29.3782 24.1781 29.4448 24.3114 29.5115 24.4447C29.4448 24.7781 29.3115 25.0447 29.0448 25.3114C28.7782 25.5781 28.5782 25.8447 28.2448 26.1114C27.8448 26.4447 26.9782 26.9781 26.5782 27.2447C26.7782 27.3781 27.0448 27.8447 27.2448 28.1114C27.5782 27.7781 28.3782 26.9114 28.7782 26.5781C29.1115 26.3114 29.3782 25.9781 29.5782 25.5781C29.7782 25.1781 30.0448 24.8447 30.0448 24.3781L29.9782 24.3114C29.9115 24.1781 29.7782 24.0447 29.7115 23.9114C29.6448 23.7781 29.5115 23.6447 29.3782 23.5781C29.1782 23.3781 28.9115 23.1114 28.6448 22.9114C28.3782 22.7114 28.1115 22.5114 27.8448 22.3781C27.7115 22.2447 27.5782 22.2447 27.3782 22.1781C27.2448 22.1114 27.0448 22.0447 26.9115 21.9781C26.7782 21.9114 26.6448 21.9781 26.5782 22.1114C26.5115 22.1114 26.5782 22.2447 26.7115 22.3114Z" fill="#B20838"/><path fill-rule="evenodd" clip-rule="evenodd" d="M28.5115 28.0447C28.3782 28.1113 28.2448 28.1113 28.1782 28.1113L27.4448 28.178C27.6448 28.4447 27.7782 28.8447 27.9782 29.1113C27.9782 29.1113 28.7115 28.8447 28.7782 28.778C29.2448 28.578 29.6448 28.378 30.1115 28.178L30.1782 28.1113L30.2448 28.0447L31.0448 27.1113C31.3115 26.778 31.5782 26.5113 31.9115 26.178C32.0448 26.0447 31.9782 25.9113 31.9115 25.8447C31.7782 25.778 31.6448 25.778 31.5782 25.8447C31.3115 26.178 30.9782 26.378 30.6448 26.7113L29.7782 27.5113C29.3115 27.778 28.9115 27.9113 28.5115 28.0447Z" fill="#B20838"/><path fill-rule="evenodd" clip-rule="evenodd" d="M19.9115 25.8447C20.1782 26.1781 20.4449 26.5114 20.7115 26.7781C21.1115 27.1114 21.9782 27.9114 22.3782 28.1781C22.5782 27.9781 22.7782 27.5114 22.9782 27.3114C22.5782 27.0447 21.5782 26.6447 21.2449 26.3114C20.9115 26.1114 20.6449 25.8447 20.4449 25.5781C20.2449 25.3781 20.0449 25.0447 19.9782 24.7114C20.0449 24.6447 20.1115 24.5114 20.1115 24.3781C20.1782 24.2447 20.2449 24.1781 20.3782 23.9781C20.5782 23.7114 20.7782 23.5114 21.0449 23.3781C21.2449 23.1781 21.5782 22.9781 21.7782 22.8447C21.9115 22.7114 22.0449 22.6447 22.1782 22.5781C22.3115 22.5114 22.4449 22.4447 22.5782 22.3781C22.7115 22.3114 22.7782 22.1781 22.7115 22.0447C22.6449 21.9114 22.5115 21.8447 22.3782 21.9114C22.2449 21.9781 22.0449 22.0447 21.9115 22.1114C21.7782 22.1781 21.5782 22.2447 21.4449 22.3114L20.6449 22.8447C20.3782 23.0447 20.1115 23.3114 19.9115 23.5114C19.8449 23.6447 19.7115 23.7781 19.5782 23.9114L19.3115 24.3114L19.2449 24.3781V24.4447C19.3782 24.9781 19.5782 25.4447 19.9115 25.8447Z" fill="#B20838"/><path fill-rule="evenodd" clip-rule="evenodd" d="M34.2448 27.5113C34.1782 27.378 34.0448 27.378 33.9115 27.4447H33.8448L33.5115 27.6447C33.3782 27.7113 33.3115 27.778 33.1782 27.8447L32.4448 28.2447L30.9782 28.9113C30.4448 28.978 29.9115 29.1113 29.4448 29.178C29.2448 29.178 28.5115 29.3113 28.3782 29.3113C28.5782 29.578 28.7115 29.9113 28.7782 30.2447C28.8448 30.2447 29.4448 30.1113 29.5115 30.1113C30.0448 30.0447 30.5782 29.8447 31.1115 29.7113H31.1782C31.7115 29.4447 32.1782 29.178 32.6448 28.8447L33.3782 28.378C33.5115 28.3113 33.5782 28.178 33.7115 28.1113L34.0448 27.8447C34.2448 27.7113 34.2448 27.578 34.2448 27.5113Z" fill="#B20838"/><path fill-rule="evenodd" clip-rule="evenodd" d="M32.2447 33.3782V33.3115V33.2448C32.178 33.0448 32.0447 32.8448 31.978 32.6448C31.578 31.9782 30.978 31.4448 30.3114 31.1115C30.0447 30.9782 29.1114 30.5115 28.9114 30.4448C29.0447 30.9115 29.0447 31.5115 29.178 31.9115C29.6447 31.9782 30.5114 31.9782 31.178 33.1115C31.3114 33.2448 31.378 33.3782 31.378 33.5782V33.6448V33.9782C31.378 34.3115 31.378 34.7115 31.3114 35.1115C31.178 36.5115 30.8447 37.9115 30.3114 39.2448C30.178 39.6448 29.9114 40.1115 29.7114 40.4448C29.6447 40.5782 29.5114 40.7115 29.378 40.8448C29.2447 40.9782 29.2447 41.1115 29.378 41.1782C29.5114 41.3115 29.6447 41.3115 29.7114 41.1782C29.8447 41.0448 29.978 40.9115 30.0447 40.7115C30.378 40.3115 30.578 39.9115 30.778 39.4448C31.378 38.1115 31.778 36.6448 32.0447 35.1782C32.1114 34.7782 32.178 34.3782 32.178 33.9782V33.6448C32.3114 33.5782 32.2447 33.4448 32.2447 33.3782Z" fill="#B20838"/><path fill-rule="evenodd" clip-rule="evenodd" d="M20.1782 40.5115C19.9115 40.1115 19.7115 39.7115 19.5115 39.3115C18.9782 37.9782 18.5782 36.6448 18.3782 35.2448C18.3115 34.9115 18.3115 34.5115 18.2449 34.1115V33.7782V33.7115C18.3115 33.5115 18.3782 33.3782 18.4449 33.2448C18.7782 32.7782 19.4449 32.3115 20.3115 31.9782C20.3782 31.5115 20.7115 30.9115 20.8449 30.4448C20.6449 30.5782 19.5115 31.0448 19.2449 31.1782C18.5782 31.5782 18.0449 32.1115 17.6449 32.7782C17.5782 32.9782 17.5115 33.1782 17.3782 33.3782V33.4448V33.5115C17.3782 33.5782 17.3782 33.6448 17.3115 33.7115V34.0448C17.3782 34.4448 17.3782 34.8448 17.4449 35.2448C17.7115 36.7115 18.1782 38.1115 18.8449 39.4448C19.0449 39.9115 19.3115 40.3115 19.6449 40.7115C19.8449 40.9782 20.0449 41.1782 20.0449 41.1782C20.1115 41.3115 20.3115 41.3115 20.3782 41.1782C20.5115 41.1115 20.5115 40.9115 20.3782 40.8448C20.5115 40.9782 20.3782 40.8448 20.1782 40.5115Z" fill="#B20838"/><path fill-rule="evenodd" clip-rule="evenodd" d="M18.3115 29.8448C18.9115 29.9781 19.4448 30.1114 19.9781 30.1781C20.0448 30.1781 20.8448 30.3114 20.9115 30.3114C21.0448 29.9781 21.3115 29.6448 21.4448 29.3114C21.2448 29.3114 20.1781 29.3114 20.0448 29.2448C19.5115 29.1781 18.9781 29.1114 18.5115 29.0448C18.1115 28.9114 17.5781 28.6448 17.1781 28.4448L16.4448 28.1114C16.3115 28.0448 16.2448 27.9781 16.0448 27.9781L15.8448 27.9114L15.6448 27.7781C15.5115 27.7114 15.4448 27.7781 15.3115 27.8448C15.2448 27.9114 15.2448 28.0448 15.3115 28.1781L15.7115 28.4448C15.8448 28.5114 15.9115 28.5781 16.1115 28.7114L16.8448 29.1781C17.3781 29.3114 17.8448 29.5781 18.3115 29.8448Z" fill="#B20838"/><path fill-rule="evenodd" clip-rule="evenodd" d="M26.5783 27.2446C26.1783 27.578 25.6449 27.778 25.1783 27.778H24.4449C23.9116 27.778 23.4449 27.578 22.9783 27.3113C21.1116 28.9113 20.0449 31.578 20.1116 33.978C20.1783 37.178 21.6449 39.9113 24.9783 39.9113C28.3116 39.9113 29.7116 37.1113 29.7116 33.8446C29.6449 31.4446 28.5116 28.8446 26.5783 27.2446Z" fill="#B20838"/><path fill-rule="evenodd" clip-rule="evenodd" d="M24.7115 27.378C25.4449 27.378 26.1782 27.0447 26.1782 26.578C26.1782 26.4447 26.1782 26.378 26.0449 26.3113C26.0449 26.2447 26.1115 26.178 26.1115 26.1113C26.1115 25.4447 25.6449 24.2447 24.9782 24.0447C24.9782 24.6447 25.3115 25.4447 25.1782 26.2447C25.0449 26.2447 24.8449 26.2447 24.7115 26.3113C24.5782 26.3113 24.4449 26.2447 24.2449 26.2447C24.0449 25.4447 24.3115 24.578 24.3782 24.0447C23.7782 24.2447 23.3115 25.4447 23.3115 26.1113C23.3115 26.178 23.3115 26.3113 23.3782 26.3113C23.3115 26.378 23.2449 26.5113 23.2449 26.578C23.2449 27.1113 24.0449 27.4447 24.7115 27.378Z" fill="#B20838"/><path fill-rule="evenodd" clip-rule="evenodd" d="M1.2822 11.4755C1.2822 11.5422 1.01553 11.6089 1.21553 11.5422C1.4822 11.8755 1.74887 12.1422 2.01553 12.4089C2.0822 12.4755 2.21553 12.5422 2.34887 12.5422C2.54887 12.6089 2.4822 12.8755 2.61553 13.0089L3.21553 13.6089C3.41553 13.7422 3.74887 13.8755 4.01553 13.8755C4.0822 13.9422 4.0822 14.1422 4.14887 14.1422C4.4822 14.3422 4.8822 14.4089 5.21553 14.5422C5.34887 14.6755 5.41553 14.6755 5.54887 14.6755C5.61553 14.7422 5.61553 14.8089 5.6822 14.8755C5.94887 14.9422 6.21553 14.9422 6.4822 15.0089C6.74887 15.0755 7.01553 14.9422 7.34887 15.1422C7.41553 15.2089 7.54887 15.2089 7.61553 15.2089C8.14887 15.3422 8.6822 15.2755 9.14887 15.0755C9.34887 15.2755 9.54887 15.2755 9.81553 15.2089C10.1489 15.1422 10.3489 14.8755 10.6155 14.8755C10.6822 14.8755 10.8155 14.9422 10.9489 14.9422C11.3489 14.8755 11.5489 14.5422 11.9489 14.2755C11.9489 14.5422 12.2155 14.7422 12.2155 15.0755C12.2155 15.4089 12.0155 15.6755 11.9489 16.0089C12.0155 16.0755 11.8822 16.1422 11.8155 16.1422C11.4822 15.9422 11.2155 15.8755 10.8822 15.7422C10.0155 15.4755 9.01553 15.5422 8.2822 16.2089C8.14887 16.3422 7.81553 16.2755 7.74887 16.4089C7.54887 16.7422 7.14887 16.8089 6.81553 17.0755C6.81553 17.2089 6.74887 17.2755 6.74887 17.3422C6.4822 17.4755 6.34887 17.8089 6.0822 17.8755C5.74887 18.0089 5.4822 18.1422 5.2822 18.4089C5.14887 18.6755 5.34887 18.9422 5.21553 19.0089C4.81553 19.4089 4.34887 19.6755 3.8822 19.9422C3.6822 20.0089 3.6822 20.3422 3.54887 20.3422C3.34887 20.4089 3.21553 20.6089 3.01553 20.7422C2.81553 20.8755 2.4822 20.9422 2.41553 21.2755C2.34887 21.4089 2.01553 21.4089 1.8822 21.6089C1.8822 21.6755 1.81553 21.7422 1.8822 21.8089C1.74887 21.8755 1.54887 21.8089 1.41553 21.9422C1.34887 22.0089 1.41553 22.1422 1.34887 22.1422C1.14887 22.0755 1.0822 22.3422 0.948867 22.3422C0.748867 22.4089 0.548867 22.5422 0.348867 22.6755C0.215534 22.8089 0.415534 22.9422 0.348867 23.0089C0.2822 23.0755 0.282201 23.0755 0.215534 23.0755C0.215534 23.0755 0.215534 23.0755 0.148867 23.0089C0.0155339 22.8755 0.0155338 22.5422 0.215534 22.4089C0.215534 22.3422 0.215534 22.2755 0.215534 22.2755C-0.184466 22.4755 0.0822006 22.9422 0.148867 23.2089C0.215534 23.2089 0.2822 23.2755 0.348867 23.2089C0.348867 23.6755 0.882201 23.8089 1.2822 23.5422C1.21553 23.4089 1.0822 23.6089 0.948867 23.5422C0.815534 23.5422 0.548867 23.6089 0.615534 23.3422C0.615534 23.3422 0.8822 23.4089 1.01553 23.3422C1.21553 23.2089 1.21553 23.0755 1.2822 23.0089C1.2822 22.9422 1.41553 22.8755 1.41553 22.8089C1.4822 22.7422 1.54887 22.7422 1.61553 22.6755C1.61553 22.6089 1.61553 22.5422 1.6822 22.5422C1.6822 22.5422 1.74887 22.6755 1.8822 22.5422C2.01553 22.4089 2.14887 22.2755 2.2822 22.2755C2.41553 22.2755 2.54887 22.0089 2.61553 21.8755C2.6822 21.8089 2.6822 21.7422 2.74887 21.7422C3.14887 21.8089 3.41553 21.4089 3.61553 21.2089C3.74887 21.0755 3.6822 21.0755 3.81553 20.9422C3.8822 20.8755 4.01553 21.0089 4.14887 21.0089C4.4822 20.8755 4.6822 20.6755 4.8822 20.4089C5.0822 20.2089 5.34887 20.1422 5.61553 19.9422C5.6822 19.8755 5.6822 19.7422 5.6822 19.7422C5.81553 19.7422 5.94887 19.8755 6.01553 19.8089C6.6822 19.0755 7.21553 18.3422 7.81553 17.5422C7.8822 17.4089 8.14887 17.2755 8.2822 17.1422C8.41553 17.4755 8.74887 17.3422 9.0822 17.3422C9.8822 17.2755 10.5489 17.8755 11.2822 17.7422C11.6155 17.7422 12.0822 17.5422 12.2155 17.0755C12.2155 17.0089 12.3489 17.0755 12.3489 17.0755C12.6155 16.9422 12.6155 16.6089 12.9489 16.6089C12.9489 16.6089 13.0822 16.5422 13.1489 16.5422C13.2155 16.4755 13.2155 16.4755 13.3489 16.4089C13.4155 16.3422 13.4155 16.3422 13.4822 16.2755C13.6155 16.2755 13.6822 16.1422 13.8155 16.0755C14.0155 15.8755 14.2155 15.7422 14.3489 15.5422C14.4822 15.4089 14.6155 15.2089 14.6822 15.0089C14.8155 14.7422 14.8822 14.4755 14.8822 14.2089C14.8822 14.1422 14.8155 14.0755 14.7489 13.9422L14.6155 13.8089C14.7489 13.8089 14.8155 13.8755 14.8822 13.8089C14.9489 13.7422 15.0155 13.8089 15.0822 13.7422C15.2155 13.6755 15.2822 13.6755 15.4155 13.6089C15.4822 13.6089 15.5489 13.6089 15.6155 13.5422L15.5489 13.6089L15.4822 13.6755C15.4155 13.7422 15.3489 13.8755 15.2822 14.0089C14.8822 14.4755 14.8822 15.1422 14.8155 15.7422C14.6155 15.8755 14.6822 16.0089 14.6822 16.1422C14.5489 16.1422 14.4155 16.1422 14.2155 16.1422C14.0822 16.1422 14.0155 16.2089 13.9489 16.2089C13.8155 16.2089 13.7489 16.2755 13.6822 16.2755C13.4822 16.3422 13.2822 16.4755 13.1489 16.6089C12.8155 17.0089 12.1489 17.4089 12.3489 18.0089C12.2155 18.0089 12.0155 18.0755 12.0155 18.2089C11.7489 19.0089 11.0155 20.2089 11.1489 20.5422C11.2155 20.6755 11.2822 20.7422 11.4155 20.8755C11.2822 20.8755 11.2155 21.0089 11.0822 21.0755C11.0155 21.1422 11.0155 21.2755 11.0155 21.4089C11.0155 21.4755 11.0822 21.4755 11.0822 21.4755C10.8155 21.7422 10.6822 22.0089 10.5489 22.3422C10.4822 22.5422 10.1489 22.6089 10.0822 22.9422C10.0822 23.0089 9.8822 23.1422 9.81553 23.2089C9.74887 23.3422 9.61553 23.4089 9.54887 23.4755C9.41553 23.5422 9.34887 23.6755 9.21553 23.7422C9.0822 23.8089 9.14887 23.9422 9.01553 24.0755C8.94887 24.1422 9.01553 24.2089 9.01553 24.2089C8.81553 24.3422 8.34887 24.3422 8.41553 24.0755C8.41553 24.0089 8.54887 23.8089 8.41553 23.8089C8.34887 23.8089 8.2822 23.9422 8.2822 23.9422C8.14887 24.2089 8.4822 24.3422 8.6822 24.3422C8.94887 24.4089 9.0822 24.2089 9.0822 24.3422C9.21553 24.6755 9.34887 25.0089 9.6822 24.9422C9.81553 24.9422 9.81553 24.8089 9.6822 24.8089C9.4822 24.8089 9.21553 24.6755 9.14887 24.4755H9.2822V24.4089C9.34887 24.3422 9.41553 24.4089 9.41553 24.3422C9.4822 24.2089 9.54887 24.1422 9.61553 24.0089C9.6822 23.9422 9.6822 23.8089 9.81553 23.7422C9.81553 23.6755 9.8822 23.6089 9.81553 23.5422C9.94887 23.4755 10.0822 23.6089 10.1489 23.4755C10.1489 23.4755 10.2155 23.3422 10.1489 23.3422C10.2822 23.3422 10.4155 23.2089 10.4155 23.0755C10.4155 22.9422 10.4822 22.7422 10.5489 22.7422C10.8155 22.6089 10.9489 22.4089 10.9489 22.1422C10.9489 22.0089 11.0155 21.9422 11.0155 21.8089C11.0155 21.6755 11.2822 21.7422 11.3489 21.6089C11.4155 21.4089 11.3489 21.2755 11.4822 21.1422C11.5489 21.0755 11.8155 21.0755 11.8822 20.8755C12.0822 20.4755 12.1489 20.0089 12.1489 19.6089C12.1489 19.2089 12.1489 18.8089 12.4155 18.4755C12.4155 18.4089 12.4822 18.5422 12.6822 18.4755C12.9489 18.4089 13.2155 18.1422 13.4822 18.0089C14.0155 17.8755 14.6155 17.8089 14.8155 17.3422C14.8822 17.1422 14.8155 16.8755 14.9489 16.7422C15.0822 16.6089 15.2155 16.4755 15.3489 16.3422C15.8155 15.7422 16.4155 15.3422 16.8822 14.7422C16.9489 14.6089 16.9489 14.4089 16.8155 14.3422C17.2155 14.4089 17.4155 14.1422 17.8155 13.9422C17.8822 13.8755 17.9489 13.8089 17.9489 13.6755C18.2155 13.6755 18.4155 13.7422 18.6155 13.9422C18.4155 14.0755 18.2822 14.2089 18.2155 14.4089C18.0155 14.8755 17.7489 15.3422 17.4822 15.8089C17.4822 15.9422 17.4155 16.0755 17.4155 16.2089C17.4155 16.2755 17.2822 16.3422 17.2822 16.3422C16.7489 16.1422 16.2155 16.1422 15.6822 16.4089C15.5489 16.4755 15.4822 16.5422 15.4155 16.6089C15.3489 16.8089 15.2822 16.9422 15.1489 17.1422C15.0155 17.2755 15.0155 17.6089 15.0155 17.8089C15.0155 18.0089 15.0155 18.2089 14.9489 18.4089C14.9489 18.5422 15.0822 18.7422 15.1489 18.8089C15.1489 18.8089 15.0155 19.1422 15.1489 19.2755C14.9489 19.3422 14.8155 19.5422 14.8155 19.8089C14.8155 19.8755 14.6155 20.0755 14.6155 20.2755C14.6155 20.3422 14.4822 20.2755 14.4155 20.3422C14.2822 20.4755 14.2822 20.6755 14.0822 20.8089C14.0155 20.8755 14.0155 21.0089 13.9489 21.0755C13.8822 21.1422 13.7489 21.2755 13.6822 21.4089C13.6155 21.5422 13.6155 21.7422 13.6822 21.8755C13.7489 22.0755 13.5489 22.2089 13.4155 22.2755C13.2155 22.3422 13.2822 22.0089 13.2155 22.0755C13.0822 22.1422 13.2155 22.3422 13.3489 22.3422C13.4822 22.3422 13.6822 22.2089 13.7489 22.0755C13.8155 22.2755 13.6822 22.5422 13.9489 22.6755C14.0822 22.7422 14.2155 22.6755 14.2155 22.5422C14.2155 22.5422 14.2155 22.4755 14.1489 22.4755C14.0822 22.4755 14.0822 22.6089 14.0155 22.6089C14.2155 22.3422 14.2155 22.0089 14.2822 21.8089C14.3489 21.6755 14.6155 21.6755 14.6155 21.5422C14.6155 21.4755 14.6822 21.4089 14.6822 21.3422C14.7489 21.1422 14.8155 21.0089 14.8822 20.8089C14.8822 20.7422 15.0155 20.7422 15.0155 20.6755C15.0822 20.5422 15.2155 20.5422 15.2155 20.3422C15.2155 20.2755 15.2155 20.2089 15.2155 20.2089C15.2822 20.2089 15.3489 20.2089 15.3489 20.1422C15.4155 20.0089 15.4155 19.8755 15.4155 19.7422C15.4155 19.6755 15.5489 19.7422 15.5489 19.6755C15.6822 19.4755 15.6155 19.2755 15.7489 19.1422C15.8155 19.0089 15.8155 18.8089 15.8822 18.6755C15.9489 18.6755 16.0155 18.5422 16.0155 18.5422C16.1489 18.0755 16.0155 17.6089 15.8822 17.2089C16.6155 17.4089 17.7489 17.7422 18.0155 16.8089C18.4155 16.6755 18.8155 16.4755 19.2155 16.2089C19.8822 15.6089 20.2155 14.8755 20.5489 14.0755C20.5489 13.9422 20.6155 13.7422 20.7489 13.6089L20.8155 13.5422C20.9489 13.4755 21.0822 13.4089 21.2155 13.2755C21.2822 13.3422 21.0155 13.6089 21.0155 13.6089C20.9489 13.6755 20.9489 13.8089 20.9489 13.8755C20.7489 14.1422 20.5489 14.4089 20.5489 14.7422L20.6155 14.8089V14.9422C20.4155 15.3422 20.2822 15.4755 20.0822 15.8755C20.0155 16.0089 19.8822 16.2089 19.8822 16.4089C19.8822 16.4089 19.9489 16.4755 19.9489 16.4089C20.2822 16.0755 20.4155 15.6755 20.7489 15.2755C20.7489 15.7422 20.2822 16.0089 20.2822 16.5422C20.7489 15.9422 20.9489 15.2089 21.3489 14.5422C21.3489 14.6755 21.3489 14.7422 21.2822 14.8755C21.0155 15.4755 20.8822 16.0755 20.6155 16.6089C20.7489 16.7422 21.2822 15.0755 21.6155 14.4755C21.6155 14.9422 21.2822 15.5422 21.2155 16.2089C21.2155 16.2755 21.2822 16.2755 21.2822 16.2755L21.4155 16.0755C21.6155 15.4755 21.8155 14.8755 22.0155 14.3422L22.0822 14.2755C22.3489 14.2089 22.6155 14.0755 22.7489 13.8755C23.1489 13.2755 23.0155 12.6089 22.6155 12.0089C22.0155 11.0755 21.0822 10.5422 20.0822 10.1422C20.0155 10.0755 19.8155 10.1422 19.6822 10.1422C19.2822 9.9422 18.9489 9.60887 18.4822 9.5422C18.2822 9.5422 18.2822 9.67553 18.2155 9.67553C17.7489 9.5422 17.3489 9.20887 16.8822 9.07553L16.7489 9.1422C16.2822 9.00887 15.8822 8.7422 15.4822 8.47553C15.3489 8.40887 15.2155 8.47553 15.1489 8.47553C14.4822 8.20887 13.2822 7.60887 13.2822 7.7422C13.2822 7.80887 13.1489 7.80887 13.0822 7.80887C12.6155 7.7422 12.1489 7.40887 11.6155 7.3422C11.4822 7.3422 11.4822 7.47553 11.4822 7.47553L10.7489 7.3422C10.4155 7.27553 10.0822 7.00887 9.81553 7.1422C9.34887 7.3422 8.94887 7.27553 8.4822 7.20887C8.34887 7.20887 8.2822 7.27553 8.14887 7.27553C7.81553 7.27553 7.54887 6.9422 7.2822 7.07553C7.14887 7.07553 7.01553 7.1422 6.94887 7.20887C6.61553 7.27553 6.34887 6.9422 6.01553 7.00887C5.8822 7.07553 5.81553 7.20887 5.6822 7.20887C5.41553 7.27553 5.14887 7.1422 4.8822 7.1422C4.74887 7.1422 4.6822 7.3422 4.61553 7.5422C4.61553 7.60887 4.4822 7.60887 4.4822 7.67553C4.21553 7.67553 3.8822 7.60887 3.61553 7.80887C3.54887 7.87553 3.54887 8.00887 3.61553 8.07553C3.01553 8.27553 2.54887 8.67553 2.21553 9.1422C2.0822 9.27553 2.34887 9.40887 2.2822 9.5422C2.14887 9.9422 1.8822 10.2089 1.4822 10.6089C1.14887 11.0089 1.34887 11.2089 1.2822 11.4755Z" fill="#B20838"/><path fill-rule="evenodd" clip-rule="evenodd" d="M29.0668 6.60008L30.6001 9.00008C30.6001 9.06675 30.6668 9.06675 30.7335 9.13342L33.6001 9.86675C33.5335 9.66675 33.5335 9.53341 33.4668 9.33341C33.4001 9.33341 33.3335 9.26675 33.3335 9.20008L30.9335 8.66675L29.4001 6.33341C29.4001 6.26675 29.3335 6.26675 29.2668 6.26675L26.6001 5.73342C26.5335 5.73342 26.4668 5.73341 26.4001 5.80008C26.4001 5.86675 26.4001 5.93341 26.4668 6.00008H26.5335L29.0668 6.60008ZM33.9335 17.4001L32.9335 15.6001C32.8668 15.8001 32.7335 15.9334 32.6668 16.0667L33.5335 17.5334L32.2001 21.6001C32.2001 21.6667 32.2001 21.7334 32.2668 21.8001C32.3335 21.8667 32.4001 21.8001 32.4001 21.8001V21.7334L33.8668 17.6001C33.9335 17.5334 33.9335 17.4667 33.9335 17.4001ZM41.8001 13.4001L41.2668 12.0001C41.0668 12.0001 40.8668 11.9334 40.7335 11.9334L41.5335 13.6667C41.5335 13.7334 41.6001 13.7334 41.6668 13.8001L45.8668 15.1334C45.9335 15.1334 46.0001 15.1334 46.0668 15.0667C46.1335 15.0001 46.0668 14.9334 46.0668 14.9334H46.0001L41.8001 13.4001ZM36.6668 6.06675C36.7335 6.00008 36.6668 5.93341 36.6668 5.86675L35.7335 3.20008L36.8668 0.866748C36.9335 0.800082 36.8668 0.733415 36.8001 0.666748C36.7335 0.666748 36.6668 0.666748 36.6001 0.800081L35.4001 3.20008C35.4001 3.26675 35.3335 3.33341 35.4001 3.33341L36.2668 6.00008L35.2668 8.20008C35.2668 8.26675 35.2668 8.33342 35.2668 8.40008C35.4001 8.53342 35.4668 8.66675 35.6001 8.80008L36.6668 6.06675ZM40.8668 16.1334L39.0001 11.6001C38.7335 11.5334 38.5335 11.4667 38.2668 11.3334L40.5335 16.4001C40.5335 16.4667 40.6001 16.4667 40.6668 16.4667L45.8668 20.0667C45.9335 20.1334 46.0001 20.1334 46.0001 20.0667C46.0001 20.0667 46.0001 20.0667 46.0001 20.0001C46.0668 19.9334 46.0001 19.8667 45.9335 19.8001L40.8668 16.1334ZM36.1335 18.4667L36.0001 24.6667C36.0001 24.7334 36.0668 24.8001 36.1335 24.8001C36.2001 24.8001 36.2668 24.7334 36.2668 24.6667L36.5335 18.4001C36.5335 18.3334 36.5335 18.3334 36.5335 18.2667L33.8668 13.3334C33.8001 13.6001 33.7335 13.8667 33.6001 14.0667L36.1335 18.4667Z" fill="#B20838"/><path fill-rule="evenodd" clip-rule="evenodd" d="M35.1335 9.20011C34.9335 8.93345 34.7335 8.66678 34.4001 8.46678C34.6668 8.26678 34.4668 7.33345 33.8668 7.46678C33.6001 7.00011 32.6668 5.53345 32.6668 5.53345C32.6668 5.53345 33.2668 7.13345 33.5335 7.60011C33.0668 8.06678 33.7335 8.80011 34.0001 8.66678C34.0001 9.00011 34.0668 9.33345 34.1335 9.66678C29.6001 12.2668 28.3335 16.4668 28.1335 17.8668C28.0668 18.3334 29.6001 17.9334 30.0001 17.7334C33.4668 16.0001 34.0668 11.3334 34.2668 9.80011L34.3335 9.93345C34.6001 10.4668 34.6668 10.4668 35.0668 10.9334C35.0001 12.8668 37.0668 16.2001 38.8668 17.7334C38.7335 15.4001 37.2668 11.7334 35.7335 10.6001C35.6001 9.93345 35.6668 9.93345 35.4001 9.40011L35.3335 9.26678C36.7335 10.0668 40.7335 12.3334 44.2001 10.6668C44.4668 10.5334 45.7335 9.53345 45.4001 9.26678C44.1335 8.66678 39.9335 7.20011 35.1335 9.20011Z" fill="#B20838"/></svg>