<svg width="50" height="50" viewBox="0 0 50 50" fill="none" xmlns="http://www.w3.org/2000/svg"><g clip-path="url(#clip0_389_23811)"><mask id="mask0_389_23811" style="mask-type:luminance" maskUnits="userSpaceOnUse" x="0" y="0" width="50" height="50"><path d="M50 0H0V50H50V0Z" fill="#fff"/></mask><g mask="url(#mask0_389_23811)"><mask id="mask1_389_23811" style="mask-type:luminance" maskUnits="userSpaceOnUse" x="7" y="7" width="36" height="36"><path d="M42.8821 7.11816H7.11816V42.8821H42.8821V7.11816Z" fill="#fff"/></mask><g mask="url(#mask1_389_23811)" fill="#B20838"><path fill-rule="evenodd" clip-rule="evenodd" d="M39.3751 9.96533H35.9376V8.38547C35.9202 7.70839 35.382 7.17019 34.7223 7.15283H32.4306C31.7536 7.17019 31.2154 7.70839 31.2154 8.36811V9.94797H18.889V8.36811C18.8716 7.69103 18.3334 7.15283 17.6737 7.15283H15.2779C14.6008 7.17019 14.0626 7.70839 14.0626 8.36811V9.94797H10.6251C8.73272 9.93061 7.18758 11.4237 7.1355 13.316V17.3091H42.8473V13.316C42.8126 11.441 41.2501 9.94797 39.3751 9.96533Z"/><path d="M15.5904 27.205H9.44452V22.6043H15.573L15.5904 27.205ZM40.6598 27.1529H34.5313V22.5522H40.6598V27.1529ZM39.3751 40.7119H34.514V36.1112H40.6424V38.9237C40.6598 39.8959 40.0869 40.7119 39.3751 40.7119ZM15.5904 33.9064H9.44452V29.3577H15.573L15.5904 33.9064ZM23.9237 33.9584H17.7952V29.3577H23.9411L23.9237 33.9584ZM23.9237 27.1529H17.7952V22.5522H23.9411L23.9237 27.1529ZM26.1806 22.5522H32.3091V27.1529H26.1806V22.5522ZM23.9237 40.7119H17.7952V36.1112H23.9411L23.9237 40.7119ZM26.1806 36.0939H32.3091V40.6946H26.1633L26.1806 36.0939ZM34.514 29.3577H40.6424V33.9584H34.514V29.3577ZM32.3091 33.9064H26.1806V29.3577H32.3091V33.9064ZM9.39244 38.9237V36.1112H15.5209V40.7119H10.6772C10.0174 40.7119 9.39244 39.8959 9.39244 38.9237ZM7.18758 38.9237C7.18758 41.0765 8.76744 42.8647 10.6772 42.8647H39.3404C41.2327 42.8647 42.8299 41.1286 42.8299 38.9237V20.3994H7.1355L7.18758 38.9237Z"/></g></g></g><defs><clipPath id="clip0_389_23811"><path fill="#fff" d="M0 0H50V50H0z"/></clipPath></defs></svg>