<svg width="360" height="361" viewBox="0 0 360 361" fill="none" xmlns="http://www.w3.org/2000/svg"><path fill="#F1F3F5" d="M1 1H359V360H1z"/><path d="M67.1048 192.48V202.286H65.8101V193.609H60.6316V202.286H59.3369V192.48H67.1048ZM75.1436 200.041C74.7855 201.693 73.7526 202.52 72.0448 202.52C70.998 202.52 70.1763 202.194 69.5794 201.542C68.9918 200.89 68.698 199.986 68.698 198.829C68.698 197.681 69.001 196.754 69.607 196.047C70.2222 195.33 71.021 194.972 72.0034 194.972C73.0961 194.972 73.9041 195.344 74.4274 196.088C74.96 196.823 75.2263 197.754 75.2263 198.884V199.049H69.8824L69.8687 199.132C69.8687 199.885 70.0661 200.477 70.4609 200.908C70.8557 201.34 71.3974 201.556 72.0861 201.556C72.6003 201.556 73.0043 201.436 73.2981 201.198C73.6011 200.959 73.8352 200.573 74.0005 200.041H75.1436ZM74.0143 198.099C73.9592 197.419 73.7526 196.891 73.3945 196.515C73.0364 196.129 72.5635 195.936 71.9759 195.936C71.4066 195.936 70.9338 196.129 70.5573 196.515C70.1808 196.901 69.9559 197.429 69.8824 198.099H74.0143ZM77.5691 195.179V196.184C78.0833 195.367 78.8821 194.959 79.9656 194.959C80.9572 194.959 81.7423 195.294 82.3207 195.964C82.9084 196.634 83.2022 197.543 83.2022 198.691C83.2022 199.839 82.9129 200.757 82.3345 201.446C81.7652 202.125 80.9939 202.465 80.0207 202.465C79.0015 202.465 78.2073 202.075 77.638 201.294V205.026H76.4673V195.179H77.5691ZM79.7865 195.936C79.1071 195.936 78.5699 196.184 78.1751 196.68C77.7895 197.167 77.5967 197.842 77.5967 198.705C77.5967 199.568 77.7941 200.247 78.1889 200.743C78.5929 201.23 79.1392 201.473 79.8279 201.473C80.4981 201.473 81.0261 201.225 81.4117 200.729C81.7974 200.234 81.9902 199.559 81.9902 198.705C81.9902 197.842 81.7928 197.167 81.3979 196.68C81.0123 196.184 80.4752 195.936 79.7865 195.936ZM90.7052 200.041C90.3471 201.693 89.3141 202.52 87.6063 202.52C86.5596 202.52 85.7378 202.194 85.141 201.542C84.5534 200.89 84.2595 199.986 84.2595 198.829C84.2595 197.681 84.5625 196.754 85.1685 196.047C85.7837 195.33 86.5825 194.972 87.565 194.972C88.6576 194.972 89.4656 195.344 89.989 196.088C90.5215 196.823 90.7878 197.754 90.7878 198.884V199.049H85.444L85.4302 199.132C85.4302 199.885 85.6276 200.477 86.0225 200.908C86.4173 201.34 86.959 201.556 87.6476 201.556C88.1618 201.556 88.5658 201.436 88.8596 201.198C89.1626 200.959 89.3968 200.573 89.562 200.041H90.7052ZM89.5758 198.099C89.5207 197.419 89.3141 196.891 88.956 196.515C88.598 196.129 88.1251 195.936 87.5375 195.936C86.9682 195.936 86.4953 196.129 86.1189 196.515C85.7424 196.901 85.5175 197.429 85.444 198.099H89.5758ZM97.227 196.212H94.679V202.286H93.5084V196.212H90.9604V195.179H97.227V196.212ZM104.214 201.349V202.258C103.975 202.35 103.709 202.396 103.415 202.396C102.745 202.396 102.401 202.047 102.382 201.349C101.712 202.102 100.854 202.479 99.8068 202.479C99.109 202.479 98.5535 202.299 98.1403 201.941C97.7363 201.583 97.5343 201.092 97.5343 200.468C97.5343 199.201 98.3744 198.461 100.055 198.25C100.165 198.232 100.326 198.214 100.537 198.195C101.336 198.103 101.827 197.998 102.01 197.878C102.222 197.732 102.327 197.479 102.327 197.121C102.327 196.34 101.79 195.95 100.716 195.95C100.165 195.95 99.7471 196.065 99.4625 196.295C99.1779 196.515 99.008 196.882 98.9529 197.396H97.8098C97.8281 196.634 98.099 196.042 98.6224 195.62C99.1457 195.197 99.8665 194.986 100.785 194.986C101.785 194.986 102.529 195.216 103.016 195.675C103.172 195.822 103.287 196.015 103.36 196.253C103.434 196.492 103.475 196.689 103.484 196.845C103.493 196.992 103.498 197.217 103.498 197.52C103.498 197.869 103.489 198.397 103.47 199.104C103.452 199.811 103.443 200.339 103.443 200.688C103.443 200.945 103.475 201.129 103.539 201.239C103.613 201.34 103.741 201.39 103.925 201.39C103.998 201.39 104.095 201.377 104.214 201.349ZM102.327 198.595C102.245 198.659 102.157 198.714 102.066 198.76C101.974 198.806 101.854 198.843 101.707 198.87C101.57 198.898 101.473 198.921 101.418 198.939C101.372 198.948 101.253 198.966 101.06 198.994C100.867 199.012 100.766 199.022 100.757 199.022C100.472 199.058 100.284 199.086 100.192 199.104C100.11 199.113 99.9445 199.15 99.6966 199.214C99.4579 199.279 99.288 199.352 99.187 199.435C99.086 199.517 98.985 199.641 98.884 199.807C98.7922 199.963 98.7463 200.151 98.7463 200.371C98.7463 200.739 98.8703 201.028 99.1182 201.239C99.3753 201.45 99.7242 201.556 100.165 201.556C100.725 201.556 101.225 201.39 101.666 201.06C102.107 200.729 102.327 200.339 102.327 199.889V198.595ZM105.317 202.286V195.179H106.488V201.253H109.422V195.179H110.592V201.253H113.526V195.179H114.697V201.253H115.619V204.544H114.504V202.286H105.317ZM118.17 202.286H116.669V195.179H117.84V200.977H117.867L121.063 195.179H122.564V202.286H121.393V196.487H121.366L118.17 202.286ZM129.762 196.212H127.214V202.286H126.044V196.212H123.496V195.179H129.762V196.212ZM136.529 200.041C136.171 201.693 135.138 202.52 133.43 202.52C132.384 202.52 131.562 202.194 130.965 201.542C130.377 200.89 130.083 199.986 130.083 198.829C130.083 197.681 130.386 196.754 130.992 196.047C131.608 195.33 132.406 194.972 133.389 194.972C134.482 194.972 135.29 195.344 135.813 196.088C136.345 196.823 136.612 197.754 136.612 198.884V199.049H131.268L131.254 199.132C131.254 199.885 131.452 200.477 131.846 200.908C132.241 201.34 132.783 201.556 133.472 201.556C133.986 201.556 134.39 201.436 134.684 201.198C134.987 200.959 135.221 200.573 135.386 200.041H136.529ZM135.4 198.099C135.345 197.419 135.138 196.891 134.78 196.515C134.422 196.129 133.949 195.936 133.361 195.936C132.792 195.936 132.319 196.129 131.943 196.515C131.566 196.901 131.341 197.429 131.268 198.099H135.4ZM143.187 202.286H141.686V195.179H142.857V200.977H142.884L146.08 195.179H147.581V202.286H146.41V196.487H146.383L143.187 202.286ZM148.94 197.231C148.995 196.423 149.302 195.845 149.862 195.496C150.422 195.147 151.116 194.972 151.942 194.972C152.723 194.972 153.361 195.133 153.856 195.454C154.361 195.776 154.614 196.253 154.614 196.887C154.614 197.272 154.499 197.603 154.27 197.878C154.049 198.154 153.783 198.324 153.471 198.388V198.416C153.847 198.489 154.169 198.677 154.435 198.98C154.71 199.274 154.848 199.673 154.848 200.178C154.848 200.913 154.559 201.487 153.98 201.9C153.402 202.304 152.709 202.506 151.901 202.506C150.973 202.506 150.234 202.295 149.683 201.873C149.142 201.441 148.852 200.84 148.816 200.068H150C150.037 200.564 150.225 200.936 150.565 201.184C150.905 201.432 151.345 201.556 151.887 201.556C152.429 201.556 152.856 201.427 153.168 201.17C153.48 200.904 153.636 200.582 153.636 200.206C153.636 199.435 153.131 199.049 152.121 199.049H151.143V198.099H151.928C152.378 198.099 152.741 198.007 153.016 197.823C153.292 197.631 153.43 197.337 153.43 196.942C153.43 196.666 153.292 196.428 153.016 196.226C152.75 196.024 152.387 195.923 151.928 195.923C151.46 195.923 151.051 196.028 150.703 196.239C150.363 196.451 150.17 196.781 150.124 197.231H148.94ZM156.79 195.992C157.414 195.312 158.264 194.972 159.338 194.972C160.412 194.972 161.248 195.298 161.845 195.95C162.441 196.602 162.74 197.516 162.74 198.691C162.74 199.894 162.441 200.83 161.845 201.501C161.248 202.171 160.408 202.506 159.324 202.506C158.241 202.506 157.391 202.176 156.776 201.514C156.161 200.853 155.854 199.935 155.854 198.76C155.854 197.594 156.166 196.671 156.79 195.992ZM160.936 196.708C160.541 196.203 159.999 195.95 159.31 195.95C158.622 195.95 158.076 196.203 157.672 196.708C157.268 197.213 157.066 197.888 157.066 198.732C157.066 199.605 157.263 200.289 157.658 200.784C158.062 201.271 158.622 201.514 159.338 201.514C160.027 201.514 160.564 201.267 160.949 200.771C161.344 200.275 161.542 199.591 161.542 198.719C161.542 197.874 161.34 197.204 160.936 196.708ZM164.795 194.187C165.107 193.701 165.484 193.343 165.924 193.113C166.365 192.874 166.925 192.732 167.605 192.686C168.367 192.631 168.83 192.558 168.996 192.466C169.106 192.411 169.189 192.337 169.244 192.245H170.414C170.387 192.392 170.345 192.525 170.29 192.645C170.244 192.764 170.189 192.87 170.125 192.962C170.07 193.044 169.987 193.122 169.877 193.196C169.776 193.269 169.689 193.333 169.615 193.389C169.542 193.434 169.432 193.48 169.285 193.526C169.147 193.563 169.037 193.595 168.954 193.623C168.872 193.641 168.743 193.659 168.569 193.678C168.403 193.696 168.284 193.71 168.211 193.719C168.137 193.728 168.004 193.737 167.811 193.747C167.618 193.756 167.494 193.765 167.439 193.774C166.686 193.829 166.099 194.123 165.676 194.656C165.254 195.179 164.988 195.881 164.878 196.763H164.919C165.121 196.276 165.442 195.886 165.883 195.592C166.324 195.298 166.833 195.151 167.412 195.151C168.422 195.151 169.211 195.473 169.781 196.116C170.359 196.749 170.648 197.64 170.648 198.787C170.648 199.972 170.355 200.89 169.767 201.542C169.189 202.194 168.371 202.52 167.315 202.52C166.452 202.52 165.722 202.267 165.126 201.762C164.529 201.248 164.161 200.514 164.024 199.559C163.969 199.173 163.941 198.742 163.941 198.264C163.941 196.419 164.226 195.06 164.795 194.187ZM165.139 198.829C165.139 199.637 165.332 200.289 165.718 200.784C166.113 201.28 166.65 201.528 167.329 201.528C167.99 201.528 168.509 201.289 168.886 200.812C169.262 200.335 169.45 199.669 169.45 198.815C169.45 197.979 169.257 197.323 168.872 196.845C168.486 196.368 167.963 196.129 167.302 196.129C166.641 196.129 166.113 196.373 165.718 196.859C165.332 197.337 165.139 197.993 165.139 198.829ZM173.144 195.179V196.184C173.658 195.367 174.457 194.959 175.541 194.959C176.532 194.959 177.317 195.294 177.896 195.964C178.484 196.634 178.777 197.543 178.777 198.691C178.777 199.839 178.488 200.757 177.91 201.446C177.34 202.125 176.569 202.465 175.596 202.465C174.577 202.465 173.782 202.075 173.213 201.294V205.026H172.042V195.179H173.144ZM175.362 195.936C174.682 195.936 174.145 196.184 173.75 196.68C173.365 197.167 173.172 197.842 173.172 198.705C173.172 199.568 173.369 200.247 173.764 200.743C174.168 201.23 174.714 201.473 175.403 201.473C176.073 201.473 176.601 201.225 176.987 200.729C177.373 200.234 177.565 199.559 177.565 198.705C177.565 197.842 177.368 197.167 176.973 196.68C176.587 196.184 176.05 195.936 175.362 195.936ZM186.501 201.349V202.258C186.262 202.35 185.996 202.396 185.702 202.396C185.032 202.396 184.687 202.047 184.669 201.349C183.999 202.102 183.14 202.479 182.093 202.479C181.396 202.479 180.84 202.299 180.427 201.941C180.023 201.583 179.821 201.092 179.821 200.468C179.821 199.201 180.661 198.461 182.341 198.25C182.452 198.232 182.612 198.214 182.823 198.195C183.622 198.103 184.113 197.998 184.297 197.878C184.508 197.732 184.614 197.479 184.614 197.121C184.614 196.34 184.077 195.95 183.002 195.95C182.452 195.95 182.034 196.065 181.749 196.295C181.465 196.515 181.295 196.882 181.24 197.396H180.096C180.115 196.634 180.386 196.042 180.909 195.62C181.432 195.197 182.153 194.986 183.071 194.986C184.072 194.986 184.816 195.216 185.303 195.675C185.459 195.822 185.573 196.015 185.647 196.253C185.72 196.492 185.762 196.689 185.771 196.845C185.78 196.992 185.785 197.217 185.785 197.52C185.785 197.869 185.775 198.397 185.757 199.104C185.739 199.811 185.729 200.339 185.729 200.688C185.729 200.945 185.762 201.129 185.826 201.239C185.899 201.34 186.028 201.39 186.212 201.39C186.285 201.39 186.381 201.377 186.501 201.349ZM184.614 198.595C184.531 198.659 184.444 198.714 184.352 198.76C184.26 198.806 184.141 198.843 183.994 198.87C183.856 198.898 183.76 198.921 183.705 198.939C183.659 198.948 183.54 198.966 183.347 198.994C183.154 199.012 183.053 199.022 183.044 199.022C182.759 199.058 182.571 199.086 182.479 199.104C182.396 199.113 182.231 199.15 181.983 199.214C181.745 199.279 181.575 199.352 181.474 199.435C181.373 199.517 181.272 199.641 181.171 199.807C181.079 199.963 181.033 200.151 181.033 200.371C181.033 200.739 181.157 201.028 181.405 201.239C181.662 201.45 182.011 201.556 182.452 201.556C183.012 201.556 183.512 201.39 183.953 201.06C184.394 200.729 184.614 200.339 184.614 199.889V198.595ZM190.607 198.843L188.169 202.286H186.723L189.835 198.099L187.122 195.179H188.568L191.46 198.443H191.488V195.179H192.659V198.443H192.686L195.578 195.179H197.025L194.311 198.099L197.424 202.286H195.978L193.54 198.843L192.659 199.738V202.286H191.488V199.738L190.607 198.843ZM204.155 200.041C203.797 201.693 202.764 202.52 201.056 202.52C200.01 202.52 199.188 202.194 198.591 201.542C198.004 200.89 197.71 199.986 197.71 198.829C197.71 197.681 198.013 196.754 198.619 196.047C199.234 195.33 200.033 194.972 201.015 194.972C202.108 194.972 202.916 195.344 203.439 196.088C203.972 196.823 204.238 197.754 204.238 198.884V199.049H198.894L198.88 199.132C198.88 199.885 199.078 200.477 199.473 200.908C199.867 201.34 200.409 201.556 201.098 201.556C201.612 201.556 202.016 201.436 202.31 201.198C202.613 200.959 202.847 200.573 203.012 200.041H204.155ZM203.026 198.099C202.971 197.419 202.764 196.891 202.406 196.515C202.048 196.129 201.575 195.936 200.988 195.936C200.418 195.936 199.945 196.129 199.569 196.515C199.193 196.901 198.968 197.429 198.894 198.099H203.026ZM206.65 202.286H205.479V195.179H206.65V198.002H210.203V195.179H211.374V202.286H210.203V199.035H206.65V202.286ZM214.633 202.286H213.132V195.179H214.303V200.977H214.33L217.526 195.179H219.027V202.286H217.856V196.487H217.829L214.633 202.286ZM226.859 200.041C226.501 201.693 225.468 202.52 223.76 202.52C222.713 202.52 221.891 202.194 221.295 201.542C220.707 200.89 220.413 199.986 220.413 198.829C220.413 197.681 220.716 196.754 221.322 196.047C221.937 195.33 222.736 194.972 223.719 194.972C224.811 194.972 225.619 195.344 226.143 196.088C226.675 196.823 226.941 197.754 226.941 198.884V199.049H221.598L221.584 199.132C221.584 199.885 221.781 200.477 222.176 200.908C222.571 201.34 223.113 201.556 223.801 201.556C224.315 201.556 224.719 201.436 225.013 201.198C225.316 200.959 225.55 200.573 225.716 200.041H226.859ZM225.729 198.099C225.674 197.419 225.468 196.891 225.11 196.515C224.752 196.129 224.279 195.936 223.691 195.936C223.122 195.936 222.649 196.129 222.273 196.515C221.896 196.901 221.671 197.429 221.598 198.099H225.729ZM237.511 202.286H236.34V199.146C236.148 199.201 235.808 199.269 235.321 199.352C234.844 199.426 234.449 199.462 234.137 199.462C233.411 199.462 232.842 199.292 232.429 198.953C232.025 198.604 231.823 198.094 231.823 197.424V195.179H232.994V197.231C232.994 198.057 233.448 198.471 234.357 198.471C235.009 198.471 235.67 198.365 236.34 198.154V195.179H237.511V202.286ZM245.352 200.041C244.994 201.693 243.961 202.52 242.254 202.52C241.207 202.52 240.385 202.194 239.788 201.542C239.201 200.89 238.907 199.986 238.907 198.829C238.907 197.681 239.21 196.754 239.816 196.047C240.431 195.33 241.23 194.972 242.212 194.972C243.305 194.972 244.113 195.344 244.636 196.088C245.169 196.823 245.435 197.754 245.435 198.884V199.049H240.091L240.078 199.132C240.078 199.885 240.275 200.477 240.67 200.908C241.065 201.34 241.606 201.556 242.295 201.556C242.809 201.556 243.213 201.436 243.507 201.198C243.81 200.959 244.044 200.573 244.209 200.041H245.352ZM244.223 198.099C244.168 197.419 243.961 196.891 243.603 196.515C243.245 196.129 242.772 195.936 242.185 195.936C241.615 195.936 241.143 196.129 240.766 196.515C240.39 196.901 240.165 197.429 240.091 198.099H244.223ZM253.039 202.286H251.552L248.962 198.787L247.847 199.875V202.286H246.676V195.179H247.847V198.567L251.097 195.179H252.667L249.803 197.975L253.039 202.286ZM260.112 201.349V202.258C259.873 202.35 259.607 202.396 259.313 202.396C258.643 202.396 258.299 202.047 258.28 201.349C257.61 202.102 256.752 202.479 255.705 202.479C255.007 202.479 254.452 202.299 254.038 201.941C253.634 201.583 253.432 201.092 253.432 200.468C253.432 199.201 254.273 198.461 255.953 198.25C256.063 198.232 256.224 198.214 256.435 198.195C257.234 198.103 257.725 197.998 257.909 197.878C258.12 197.732 258.225 197.479 258.225 197.121C258.225 196.34 257.688 195.95 256.614 195.95C256.063 195.95 255.645 196.065 255.361 196.295C255.076 196.515 254.906 196.882 254.851 197.396H253.708C253.726 196.634 253.997 196.042 254.52 195.62C255.044 195.197 255.765 194.986 256.683 194.986C257.684 194.986 258.427 195.216 258.914 195.675C259.07 195.822 259.185 196.015 259.258 196.253C259.332 196.492 259.373 196.689 259.382 196.845C259.391 196.992 259.396 197.217 259.396 197.52C259.396 197.869 259.387 198.397 259.368 199.104C259.35 199.811 259.341 200.339 259.341 200.688C259.341 200.945 259.373 201.129 259.437 201.239C259.511 201.34 259.639 201.39 259.823 201.39C259.896 201.39 259.993 201.377 260.112 201.349ZM258.225 198.595C258.143 198.659 258.055 198.714 257.964 198.76C257.872 198.806 257.752 198.843 257.606 198.87C257.468 198.898 257.371 198.921 257.316 198.939C257.27 198.948 257.151 198.966 256.958 198.994C256.765 199.012 256.664 199.022 256.655 199.022C256.371 199.058 256.182 199.086 256.091 199.104C256.008 199.113 255.843 199.15 255.595 199.214C255.356 199.279 255.186 199.352 255.085 199.435C254.984 199.517 254.883 199.641 254.782 199.807C254.69 199.963 254.644 200.151 254.644 200.371C254.644 200.739 254.768 201.028 255.016 201.239C255.273 201.45 255.622 201.556 256.063 201.556C256.623 201.556 257.124 201.39 257.564 201.06C258.005 200.729 258.225 200.339 258.225 199.889V198.595ZM271.164 199.696C271.063 200.55 270.737 201.23 270.186 201.735C269.644 202.24 268.937 202.492 268.065 202.492C266.991 202.492 266.16 202.162 265.572 201.501C264.984 200.83 264.691 199.94 264.691 198.829C264.691 197.644 264.998 196.708 265.613 196.019C266.229 195.321 267.06 194.972 268.106 194.972C268.979 194.972 269.676 195.193 270.2 195.633C270.723 196.065 271.031 196.685 271.123 197.493H269.911C269.699 196.464 269.103 195.95 268.12 195.95C267.441 195.95 266.903 196.203 266.509 196.708C266.114 197.204 265.916 197.878 265.916 198.732C265.916 199.595 266.105 200.275 266.481 200.771C266.858 201.267 267.376 201.514 268.037 201.514C268.57 201.514 269.002 201.358 269.332 201.046C269.672 200.734 269.888 200.284 269.979 199.696H271.164ZM278.341 194.972C279.378 194.972 280.182 195.298 280.751 195.95C281.32 196.602 281.605 197.516 281.605 198.691C281.605 199.894 281.316 200.83 280.737 201.501C280.168 202.171 279.365 202.506 278.327 202.506C277.326 202.506 276.532 202.203 275.944 201.597C275.357 200.982 275.04 200.128 274.994 199.035H273.617V202.286H272.446V195.179H273.617V198.002H275.049C275.178 197.057 275.531 196.318 276.11 195.785C276.688 195.243 277.432 194.972 278.341 194.972ZM279.842 196.708C279.466 196.203 278.956 195.95 278.313 195.95C277.671 195.95 277.156 196.203 276.771 196.708C276.394 197.213 276.206 197.888 276.206 198.732C276.206 199.605 276.394 200.289 276.771 200.784C277.147 201.271 277.671 201.514 278.341 201.514C278.984 201.514 279.489 201.267 279.856 200.771C280.223 200.275 280.407 199.591 280.407 198.719C280.407 197.874 280.219 197.204 279.842 196.708ZM289.635 204.544H288.52V202.286H283.093V204.544H281.978V201.253H282.749C282.969 200.83 283.171 200.178 283.355 199.297C283.548 198.406 283.644 197.539 283.644 196.694V195.179H288.712V201.253H289.635V204.544ZM287.542 201.253V196.212H284.787V196.804C284.787 197.64 284.7 198.489 284.526 199.352C284.36 200.206 284.172 200.84 283.961 201.253H287.542ZM296.952 201.349V202.258C296.713 202.35 296.447 202.396 296.153 202.396C295.482 202.396 295.138 202.047 295.12 201.349C294.45 202.102 293.591 202.479 292.544 202.479C291.846 202.479 291.291 202.299 290.878 201.941C290.474 201.583 290.272 201.092 290.272 200.468C290.272 199.201 291.112 198.461 292.792 198.25C292.902 198.232 293.063 198.214 293.274 198.195C294.073 198.103 294.564 197.998 294.748 197.878C294.959 197.732 295.065 197.479 295.065 197.121C295.065 196.34 294.528 195.95 293.453 195.95C292.902 195.95 292.485 196.065 292.2 196.295C291.915 196.515 291.745 196.882 291.69 197.396H290.547C290.566 196.634 290.836 196.042 291.36 195.62C291.883 195.197 292.604 194.986 293.522 194.986C294.523 194.986 295.267 195.216 295.753 195.675C295.909 195.822 296.024 196.015 296.098 196.253C296.171 196.492 296.212 196.689 296.222 196.845C296.231 196.992 296.235 197.217 296.235 197.52C296.235 197.869 296.226 198.397 296.208 199.104C296.189 199.811 296.18 200.339 296.18 200.688C296.18 200.945 296.212 201.129 296.277 201.239C296.35 201.34 296.479 201.39 296.662 201.39C296.736 201.39 296.832 201.377 296.952 201.349ZM295.065 198.595C294.982 198.659 294.895 198.714 294.803 198.76C294.711 198.806 294.592 198.843 294.445 198.87C294.307 198.898 294.211 198.921 294.156 198.939C294.11 198.948 293.99 198.966 293.798 198.994C293.605 199.012 293.504 199.022 293.495 199.022C293.21 199.058 293.022 199.086 292.93 199.104C292.847 199.113 292.682 199.15 292.434 199.214C292.195 199.279 292.026 199.352 291.925 199.435C291.824 199.517 291.723 199.641 291.622 199.807C291.53 199.963 291.484 200.151 291.484 200.371C291.484 200.739 291.608 201.028 291.856 201.239C292.113 201.45 292.462 201.556 292.902 201.556C293.462 201.556 293.963 201.39 294.404 201.06C294.844 200.729 295.065 200.339 295.065 199.889V198.595ZM137.612 216.286H136.111V209.179H137.282V214.977H137.309L140.505 209.179H142.006V216.286H140.835V210.487H140.808L137.612 216.286ZM149.686 209.179V216.286H148.516V210.212H145.981L145.885 213.352C145.857 214.436 145.66 215.221 145.293 215.707C144.926 216.194 144.466 216.437 143.916 216.437C143.576 216.437 143.296 216.387 143.075 216.286V215.335C143.195 215.4 143.401 215.432 143.695 215.432C143.971 215.432 144.205 215.285 144.398 214.991C144.6 214.688 144.71 214.183 144.728 213.476L144.852 209.179H149.686ZM152.918 216.286H151.417V209.179H152.588V214.977H152.615L155.811 209.179H157.312V216.286H156.141V210.487H156.114L152.918 216.286ZM162.876 216.286V209.179H166.167C166.636 209.179 167.035 209.22 167.366 209.303C167.696 209.376 167.985 209.546 168.233 209.813C168.481 210.079 168.605 210.441 168.605 210.901C168.605 211.598 168.256 212.108 167.558 212.429V212.443C167.981 212.526 168.311 212.723 168.55 213.035C168.789 213.338 168.908 213.724 168.908 214.192C168.908 214.798 168.706 215.299 168.302 215.693C167.898 216.088 167.379 216.286 166.746 216.286H162.876ZM166.043 212.044C166.53 212.044 166.874 211.966 167.076 211.81C167.288 211.644 167.393 211.406 167.393 211.093C167.393 210.781 167.292 210.552 167.09 210.405C166.888 210.258 166.539 210.184 166.043 210.184H164.019V212.044H166.043ZM164.019 213.035V215.28H166.526C166.893 215.28 167.177 215.17 167.379 214.95C167.591 214.729 167.696 214.445 167.696 214.096C167.696 213.389 167.237 213.035 166.319 213.035H164.019ZM177.077 209.179H178.248V216.286H177.077V209.179ZM175.314 212.484C175.736 212.87 175.948 213.398 175.948 214.068C175.948 214.739 175.741 215.276 175.328 215.68C174.924 216.084 174.377 216.286 173.689 216.286H170.259V209.179H171.43V211.892H173.634C174.332 211.892 174.892 212.09 175.314 212.484ZM173.262 212.898H171.43V215.253H173.262C173.739 215.253 174.102 215.152 174.35 214.95C174.607 214.739 174.736 214.445 174.736 214.068C174.736 213.288 174.244 212.898 173.262 212.898ZM180.659 208.187C180.971 207.701 181.348 207.343 181.789 207.113C182.229 206.874 182.789 206.732 183.469 206.686C184.231 206.631 184.695 206.558 184.86 206.466C184.97 206.411 185.053 206.337 185.108 206.245H186.278C186.251 206.392 186.21 206.525 186.155 206.645C186.109 206.764 186.054 206.87 185.989 206.962C185.934 207.044 185.852 207.122 185.741 207.196C185.64 207.269 185.553 207.333 185.48 207.389C185.406 207.434 185.296 207.48 185.149 207.526C185.011 207.563 184.901 207.595 184.819 207.623C184.736 207.641 184.607 207.659 184.433 207.678C184.268 207.696 184.148 207.71 184.075 207.719C184.001 207.728 183.868 207.737 183.675 207.747C183.483 207.756 183.359 207.765 183.304 207.774C182.551 207.829 181.963 208.123 181.541 208.656C181.118 209.179 180.852 209.881 180.742 210.763H180.783C180.985 210.276 181.307 209.886 181.747 209.592C182.188 209.298 182.698 209.151 183.276 209.151C184.286 209.151 185.076 209.473 185.645 210.116C186.223 210.749 186.513 211.64 186.513 212.787C186.513 213.972 186.219 214.89 185.631 215.542C185.053 216.194 184.236 216.52 183.18 216.52C182.317 216.52 181.587 216.267 180.99 215.762C180.393 215.248 180.026 214.514 179.888 213.559C179.833 213.173 179.805 212.742 179.805 212.264C179.805 210.419 180.09 209.06 180.659 208.187ZM181.004 212.829C181.004 213.637 181.196 214.289 181.582 214.784C181.977 215.28 182.514 215.528 183.193 215.528C183.854 215.528 184.373 215.289 184.75 214.812C185.126 214.335 185.314 213.669 185.314 212.815C185.314 211.979 185.122 211.323 184.736 210.845C184.35 210.368 183.827 210.129 183.166 210.129C182.505 210.129 181.977 210.373 181.582 210.859C181.196 211.337 181.004 211.993 181.004 212.829ZM193.98 214.041C193.622 215.693 192.589 216.52 190.882 216.52C189.835 216.52 189.013 216.194 188.416 215.542C187.829 214.89 187.535 213.986 187.535 212.829C187.535 211.681 187.838 210.754 188.444 210.047C189.059 209.33 189.858 208.972 190.84 208.972C191.933 208.972 192.741 209.344 193.264 210.088C193.797 210.823 194.063 211.754 194.063 212.884V213.049H188.719L188.706 213.132C188.706 213.885 188.903 214.477 189.298 214.908C189.693 215.34 190.234 215.556 190.923 215.556C191.437 215.556 191.841 215.436 192.135 215.198C192.438 214.959 192.672 214.573 192.837 214.041H193.98ZM192.851 212.099C192.796 211.419 192.589 210.891 192.231 210.515C191.873 210.129 191.4 209.936 190.813 209.936C190.243 209.936 189.771 210.129 189.394 210.515C189.018 210.901 188.793 211.429 188.719 212.099H192.851ZM196.406 209.179V210.184C196.92 209.367 197.719 208.959 198.802 208.959C199.794 208.959 200.579 209.294 201.158 209.964C201.745 210.634 202.039 211.543 202.039 212.691C202.039 213.839 201.75 214.757 201.171 215.446C200.602 216.125 199.831 216.465 198.858 216.465C197.838 216.465 197.044 216.075 196.475 215.294V219.026H195.304V209.179H196.406ZM198.623 209.936C197.944 209.936 197.407 210.184 197.012 210.68C196.626 211.167 196.434 211.842 196.434 212.705C196.434 213.568 196.631 214.247 197.026 214.743C197.43 215.23 197.976 215.473 198.665 215.473C199.335 215.473 199.863 215.225 200.249 214.729C200.634 214.234 200.827 213.559 200.827 212.705C200.827 211.842 200.63 211.167 200.235 210.68C199.849 210.184 199.312 209.936 198.623 209.936ZM204.969 216.286H203.468V209.179H204.639V214.977H204.666L207.862 209.179H209.363V216.286H208.192V210.487H208.165L204.969 216.286ZM216.561 210.212H214.014V216.286H212.843V210.212H210.295V209.179H216.561V210.212ZM223.328 214.041C222.97 215.693 221.937 216.52 220.229 216.52C219.183 216.52 218.361 216.194 217.764 215.542C217.176 214.89 216.883 213.986 216.883 212.829C216.883 211.681 217.186 210.754 217.792 210.047C218.407 209.33 219.206 208.972 220.188 208.972C221.281 208.972 222.089 209.344 222.612 210.088C223.145 210.823 223.411 211.754 223.411 212.884V213.049H218.067L218.053 213.132C218.053 213.885 218.251 214.477 218.645 214.908C219.04 215.34 219.582 215.556 220.271 215.556C220.785 215.556 221.189 215.436 221.483 215.198C221.786 214.959 222.02 214.573 222.185 214.041H223.328ZM222.199 212.099C222.144 211.419 221.937 210.891 221.579 210.515C221.221 210.129 220.748 209.936 220.16 209.936C219.591 209.936 219.118 210.129 218.742 210.515C218.365 210.901 218.14 211.429 218.067 212.099H222.199Z" fill="#C4C4C4"/><path d="M162.022 219.04H223.769V219.729H162.022V219.04Z" fill="#C4C4C4"/><path fill-rule="evenodd" clip-rule="evenodd" d="M181.103 144.855C181.103 145.755 181.286 146.459 181.575 147.101C183.455 151.327 189.348 151.233 191.235 147.182C192.461 144.566 191.366 141.516 188.908 140.233C185.267 138.34 181.103 141.057 181.103 144.849V144.855ZM157.44 163.189C157.44 157.201 157.44 151.201 157.44 145.208C157.44 141.302 157.213 140.126 158.88 137.654C159.854 136.208 162.282 134.44 164.659 134.44H192.335C193.599 134.44 195.102 135.088 195.913 135.597C200.026 138.189 199.554 141.874 199.554 146.157C199.554 152.503 199.554 158.855 199.554 165.201L192.744 156.755C192.542 156.497 192.473 156.415 192.272 156.164C192.058 155.893 191.907 155.748 191.75 155.503L182.55 164.642L171.381 151.145C171.142 150.849 170.784 150.535 170.689 150.182C170.274 150.296 170.117 150.579 169.834 150.862L160.785 159.912C160.2 160.497 159.71 160.987 159.131 161.572C158.641 162.057 157.962 162.849 157.44 163.195V163.189ZM152 140.239V170.761C152 172.478 152.308 174.258 152.868 175.453C154.855 179.698 158.389 182 163.244 182H193.763C200.372 182 205 177.346 205 170.761V140.239C205 136.585 203.749 134.069 201.893 132.226C199.73 130.069 197.209 129 193.882 129H163.124C158.213 129 154.654 131.579 152.906 135.465C152.321 136.78 152.006 138.39 152.006 140.245L152 140.239Z" fill="#C4C4C4"/><path stroke="#C4C4C4" stroke-width="2" d="M1 1H359V360H1z"/></svg>