<svg width="213" height="213" viewBox="0 0 213 213" fill="none" xmlns="http://www.w3.org/2000/svg"><path fill-rule="evenodd" clip-rule="evenodd" d="M36.6089 193.447C33.8151 187.625 36.8786 175.974 50.7534 175.974C54.5064 175.974 59.1127 179.244 59.9057 182.215C57.6178 182.748 50.9806 186.469 48.3961 187.762C44.3996 189.76 40.4168 191.432 36.6089 193.447V193.447ZM62.818 4.57615C62.818 9.72335 71.1382 10.8388 71.1382 4.16011C71.1382 -0.949138 62.818 -0.856027 62.818 4.57615ZM53.2497 144.357C53.2497 141.676 53.754 138.401 57.7219 138.716C63.0494 139.139 63.4383 146.63 58.0379 147.463C56.9943 147.625 55.9031 147.37 55.0207 146.758C54.4074 146.332 53.2497 145.217 53.2497 144.357V144.357ZM44.5134 142.277C44.5134 146.337 45.3675 149.075 48.0917 152.011C56.0737 160.615 70.3064 154.441 70.3064 143.941V141.862C70.3064 136.215 64.3048 130.213 58.6579 130.213C54.1469 130.213 51.9623 130.447 48.3535 134.053C46.3363 136.069 44.5134 139.064 44.5134 142.278V142.277ZM118.148 27.0411C118.148 20.3447 126.884 21.3533 126.884 26.2091C126.884 33.6803 118.148 31.7801 118.148 27.0411ZM109.412 26.6251C109.412 33.8498 115.404 39.6706 122.344 39.8635C133.045 40.1609 140.56 26.5339 131.785 17.5643C123.532 9.12781 109.412 15.4642 109.412 26.6254L109.412 26.6251ZM186.274 83.1022L192.515 89.544L186.06 96.2004L179.819 89.7585L186.274 83.1022ZM169.318 89.0273C169.318 92.47 174.247 96.244 176.287 98.2838C187.869 109.866 185.262 108.871 200.003 94.3355C205.863 88.558 201.783 86.7545 195.423 80.3952C187.13 72.1019 186.883 70.409 181.279 76.0268C179.005 78.3064 169.318 87.3844 169.318 89.0273ZM79.875 75.2989C86.1638 75.2989 96.5155 56.0494 96.5155 43.2656C96.5155 31.1921 93.9342 22.8035 86.8923 13.3673C85.4846 11.4809 82.8896 7.90419 79.875 7.90419C77.7039 7.90419 74.227 11.109 76.9351 14.9989C79.4797 18.6542 83.7967 21.4195 86.3613 30.5393C88.0203 36.4389 88.5863 41.1372 87.6205 47.2669C86.8616 52.0826 85.1487 56.8759 82.6137 60.9808C78.9307 66.9445 74.9071 68.5973 76.1942 72.29C76.646 73.586 78.1409 75.2992 79.8753 75.2992L79.875 75.2989ZM137.285 132.293C137.285 133.977 138.355 135.563 139.641 136.206C143.531 138.153 145.299 134.019 151.09 130.289C164.405 121.713 181.537 123.14 194.048 132.524C196.194 134.134 198.388 137.614 201.733 136.453C203.106 135.976 204.68 134.347 204.68 132.709C204.68 126.45 185.773 116.068 172.646 116.068C162.932 116.068 158.035 117.148 150.178 121.057C147.137 122.571 137.285 128.649 137.285 132.293V132.293ZM175.142 20.8008C177.83 20.8606 181.298 22.5654 184.832 18.8415C186.199 17.4001 187.219 15.05 188.455 14.1445C188.69 16.9671 189.777 19.9941 191.448 21.5525C194.539 24.4367 197.525 23.145 198.856 24.9609C197.333 25.3676 194.132 27.6883 193.251 28.9252C191.728 31.0656 192.199 34.4321 192.199 37.8573C190.927 37.0053 190.359 36.4825 189.118 35.5304C185.402 32.68 182.093 33.4203 177.639 35.7771C177.928 32.3003 181.314 29.2731 177.711 24.4723C176.129 22.3646 176.293 22.9887 175.142 20.8006V20.8008ZM177.223 12.4806L167.253 12.0683C164.269 12.2936 161.83 13.9074 161.83 16.6407C161.83 21.1305 170.566 25.5266 170.566 29.9531C170.566 33.5726 163.789 41.9416 167.339 45.6603C171.51 50.0282 178.03 42.8498 183.879 42.8498C187.843 42.8498 191.691 50.754 195.943 50.754C200.439 50.754 200.935 49.6461 200.935 43.6816L200.547 35.8242C200.889 32.9077 202.008 32.4015 204.096 31.0331C206.266 29.61 213 25.6003 213 22.8808C213 17.0993 201.897 17.7981 198.35 15.0665C194.374 12.0048 195.664 0 189.703 0C188.137 0 186.509 1.27664 185.704 2.24139C184.605 3.5592 184.164 4.51426 183.325 6.10172C182.648 7.38078 181.712 8.9502 180.98 9.99783C180.146 11.1935 179.227 12.4806 177.223 12.4806H177.223ZM147.269 70.3067C149.35 71.7001 150.021 72.2876 151.503 74.3931C152.88 76.3487 153.094 77.9324 153.094 81.1232C150.631 79.4743 147.743 73.9975 147.269 70.3067ZM138.117 60.3223C121.935 60.3223 109.828 72.7356 109.828 90.2755C109.828 93.0585 109.795 95.7383 110.402 98.4377C111.43 103.003 117.422 103.144 118.73 99.1492C119.694 96.2049 113.131 72.4127 136.04 68.9883C140.957 68.2532 136.525 71.6393 142.03 80.9544C143.929 84.1675 148.214 89.8594 152.261 89.8594C155.241 89.8594 157.543 90.0362 159.89 86.6719C165.377 78.8083 158.884 63.9571 146.853 61.1541C147.192 45.9504 164.742 38.5729 164.742 34.1133C164.742 33.0008 162.643 27.0492 156.298 31.9098C147.944 38.3092 142.578 44.405 139.309 54.8584C138.785 56.5346 138.549 58.4698 138.117 60.3223H138.117ZM67.3944 178.055C66.9558 176.172 65.0486 174.232 63.7626 172.95C62.269 171.462 60.3969 170.097 58.3142 169.246C42.2298 162.674 23.6108 176.042 27.6229 193.697C28.0293 195.485 28.5783 196.082 28.7053 197.607C25.7276 198.301 14.6612 204.68 12.8966 204.68C10.6859 204.68 8.3205 202.314 8.3205 200.103C8.3205 198.579 18.8156 177.857 19.6918 176.113C20.7381 174.032 21.4755 172.105 22.4634 170.149L55.3304 104.42C55.786 109.895 66.7066 123.892 70.8454 128.842L77.2628 135.737C78.5812 137.055 79.4999 137.515 80.8172 138.839C84.8753 142.917 86.9041 144.63 91.523 148.102C94.2023 150.115 105.064 157.377 108.58 157.669V158.501C105.225 159.283 69.9515 177.841 67.3944 178.054V178.055ZM64.4824 88.1953C71.6875 88.1953 81.0037 93.7916 86.2373 97.6417C87.7216 98.7337 88.9003 99.5435 90.3357 100.615C91.9426 101.815 92.9837 102.889 94.4356 104.004L98.4969 107.431C104.006 112.526 111.396 120.885 115.488 127.049C118.61 131.751 124.805 140.904 124.805 147.685C124.805 153.9 118.437 152.92 114.161 151.257C106.367 148.225 94.1549 140.219 88.0898 134.063L83.5074 129.909C81.924 128.336 81.1541 127.096 79.565 125.531C77.8917 123.883 76.9762 122.638 75.4036 120.956C74.0578 119.517 72.8207 117.608 71.6135 116.01C68.4945 111.88 64.019 104.527 62.1014 99.7286C60.8377 96.5663 58.2978 88.195 64.4827 88.195L64.4824 88.1953ZM0 198.856C0 207.669 5.33073 213 14.1445 213C17.6779 213 46.8024 198.128 53.1113 194.973L76.547 183.463C81.6046 180.934 86.8734 178.508 91.9396 175.975C98.5093 172.69 128.123 158.903 130.131 156.757C140.376 145.812 121.364 118.114 112.637 109.516C109.235 106.163 110.863 106.941 106.207 103.049C103.916 101.135 100.654 97.7362 97.1159 95.0841C96.1837 94.3852 95.6412 93.9875 94.7335 93.3064C88.9813 88.9889 85.6883 86.7286 78.9098 83.3374C72.948 80.3546 63.1372 77.1622 57.1038 82.0648C54.7357 83.9891 53.9902 86.3002 52.557 89.1665L22.3286 151.293C19.8619 156.616 16.8843 161.615 14.5662 166.828C12.141 172.282 9.62674 177.141 6.93083 182.489L3.18972 190.397C2.13563 192.505 0.000269106 196.131 0.000269106 198.856L0 198.856Z" fill="#0073D4"/></svg>