<svg width="31" height="31" viewBox="0 0 31 31" fill="none" xmlns="http://www.w3.org/2000/svg"><rect x="7" y="7" width="17" height="17" rx="8.5" fill="#fff" fill-opacity=".16"/><path d="M13.5 20.5L8.5 15.5L9.91 14.08L13.5 17.67L21.09 10.08L22.5 11.5L13.5 20.5ZM15.5 5.5C14.1868 5.5 12.8864 5.75866 11.6732 6.2612C10.4599 6.76375 9.35752 7.50035 8.42893 8.42893C6.55357 10.3043 5.5 12.8478 5.5 15.5C5.5 18.1522 6.55357 20.6957 8.42893 22.5711C9.35752 23.4997 10.4599 24.2362 11.6732 24.7388C12.8864 25.2413 14.1868 25.5 15.5 25.5C18.1522 25.5 20.6957 24.4464 22.5711 22.5711C24.4464 20.6957 25.5 18.1522 25.5 15.5C25.5 14.1868 25.2413 12.8864 24.7388 11.6732C24.2362 10.4599 23.4997 9.35752 22.5711 8.42893C21.6425 7.50035 20.5401 6.76375 19.3268 6.2612C18.1136 5.75866 16.8132 5.5 15.5 5.5Z" fill="#fff"/><rect x="3.5" y="3.5" width="24" height="24" rx="12" stroke="#fff" stroke-opacity=".16" stroke-width="7"/></svg>