<svg width="58" height="60" viewBox="0 0 58 60" fill="none" xmlns="http://www.w3.org/2000/svg"><path fill-rule="evenodd" clip-rule="evenodd" d="M21.7203 45.015C20.9704 44.9834 20.7043 44.767 20.2045 44.4854C19.8788 44.3017 19.5123 43.7278 19.3977 43.1634L19.3527 19.6535C19.3527 18.5594 19.2385 17.245 19.5703 16.4499C19.9976 15.4262 21.3553 14.5636 22.7466 15.2852L23.803 15.9064C29.907 19.693 36.2144 23.3958 42.3192 27.1803C42.9377 27.5639 43.8746 28.0208 44.2706 28.59C44.7406 29.2658 44.8196 30.4353 44.3867 31.2236C43.9682 31.9859 42.4543 32.7233 41.5345 33.2936L36.3569 36.4474C32.2975 38.9637 28.0629 41.4362 24.0245 43.9549C23.842 44.0687 23.685 44.1571 23.4983 44.2677C23.1013 44.5027 22.892 44.69 22.411 44.857C22.1536 44.9463 21.8963 44.9013 21.7199 45.0142L21.7203 45.015ZM29.3522 0.000789931H29.3553C35.0923 0.000789931 40.4441 1.75483 45.1308 4.98683C46.1472 5.6879 46.7581 6.21715 47.6679 6.95416C48.3441 7.50198 50.3585 9.50484 50.8728 10.1897C51.0156 10.3797 51.1225 10.5136 51.271 10.6961C52.7853 12.5571 54.4679 15.2212 55.4541 17.5116C56.5984 20.1693 57.4926 23.0826 57.8122 26.1538C57.9122 27.1164 57.974 28.0647 58 28.9956V30.9965C57.9137 34.0492 57.4323 36.8775 56.6312 39.3599C53.1384 50.1871 44.2171 58.0584 33.2867 59.7204C32.4071 59.8543 31.2193 59.9542 30.0196 60H27.3955C27.0598 59.9842 26.746 59.9609 26.4638 59.9297C22.2067 59.4585 19.1205 58.5829 15.3868 56.5721C15.1864 56.4643 14.9982 56.3505 14.7771 56.2233L13.1269 55.1751C12.2545 54.5732 10.3329 53.1659 9.57306 52.3618C9.39094 52.169 9.27525 52.111 9.09809 51.9348C8.77432 51.6125 8.50018 51.3135 8.18175 50.9845L6.48424 49.0061C3.3454 44.8475 1.28707 40.7612 0.354699 35.0208C0.210376 34.1317 0.0759797 32.8611 0 31.6016V28.2021C0.00763615 28.1338 0.0160359 28.0682 0.0248175 28.0058L0.179068 26.2672C0.22183 25.745 0.327973 25.1534 0.405861 24.6648C1.03241 20.7199 2.42677 17.3418 4.40453 13.9853C4.61414 13.6299 5.64426 12.0137 5.85922 11.8703L6.76487 10.7288C6.90423 10.5756 6.90995 10.6783 7.04855 10.3473L7.88585 9.32119C8.5964 8.59445 9.41957 7.70578 10.205 7.06712C12.4423 5.24791 13.5087 4.40071 16.1772 3.0207C16.6025 2.8007 16.9351 2.63126 17.3837 2.4322C19.237 1.61067 20.8051 1.06957 22.8004 0.627205C25.3509 0.0620096 26.7964 0 29.3526 0L29.3522 0.000789931Z" fill="#FEFEFE"/></svg>