<svg width="39" height="39" viewBox="0 0 39 39" fill="none" xmlns="http://www.w3.org/2000/svg"><rect width="39" height="39" rx="19.5" fill="#0073D4"/><path d="M19.4999 12.0714C20.485 12.0714 21.4298 12.4628 22.1263 13.1593C22.8229 13.8559 23.2142 14.8006 23.2142 15.7857C23.2142 16.7708 22.8229 17.7155 22.1263 18.4121C21.4298 19.1087 20.485 19.5 19.4999 19.5C18.5148 19.5 17.5701 19.1087 16.8735 18.4121C16.177 17.7155 15.7856 16.7708 15.7856 15.7857C15.7856 14.8006 16.177 13.8559 16.8735 13.1593C17.5701 12.4628 18.5148 12.0714 19.4999 12.0714ZM19.4999 21.3571C23.6042 21.3571 26.9285 23.0193 26.9285 25.0714V26.9286H12.0714V25.0714C12.0714 23.0193 15.3956 21.3571 19.4999 21.3571Z" fill="#fff"/></svg>