<svg width="23" height="23" viewBox="0 0 23 23" fill="none" xmlns="http://www.w3.org/2000/svg"><circle cx="11.5" cy="11.5" r="10.75" stroke="#00527A" stroke-width="1.5"/><path d="M8.2144 10.8264C6.8032 10.3952 6.0976 9.474 6.0976 8.0628C6.0976 6.89986 6.5876 5.97867 7.5676 5.2992C8.56067 4.61973 9.88693 4.28 11.5464 4.28C12.1867 4.28 12.8073 4.34533 13.4084 4.476C14.0095 4.60666 14.5909 4.8092 15.1528 5.0836C15.7147 5.34493 16.1655 5.7304 16.5052 6.24C16.8449 6.7496 17.0148 7.34413 17.0148 8.0236C17.0148 8.75533 16.8319 9.36293 16.466 9.8464C16.1132 10.3299 15.5971 10.6565 14.9176 10.8264C16.6947 11.2707 17.5832 12.3095 17.5832 13.9428C17.5832 14.7007 17.4003 15.3671 17.0344 15.942C16.6816 16.5169 16.2047 16.9612 15.6036 17.2748C15.0156 17.5753 14.3884 17.804 13.722 17.9608C13.0556 18.1045 12.3631 18.1764 11.6444 18.1764C11.0564 18.1764 10.4945 18.1372 9.9588 18.0588C9.42307 17.9935 8.87427 17.8628 8.3124 17.6668C7.7636 17.4708 7.28667 17.2225 6.8816 16.922C6.47653 16.6215 6.14333 16.2229 5.882 15.7264C5.63373 15.2299 5.5096 14.6615 5.5096 14.0212C5.5096 12.2833 6.4112 11.2184 8.2144 10.8264ZM11.5268 6.926C10.8865 6.926 10.3835 7.05013 10.0176 7.2984C9.65173 7.54667 9.4688 7.89293 9.4688 8.3372C9.4688 8.79453 9.65173 9.15387 10.0176 9.4152C10.3965 9.66347 10.9257 9.7876 11.6052 9.7876C12.2455 9.7876 12.7485 9.65693 13.1144 9.3956C13.4803 9.1212 13.6632 8.75533 13.6632 8.298C13.6632 7.38333 12.9511 6.926 11.5268 6.926ZM11.5072 12.12C10.8147 12.12 10.2789 12.2637 9.9 12.5512C9.52107 12.8256 9.3316 13.2176 9.3316 13.7272C9.3316 14.2499 9.5276 14.6549 9.9196 14.9424C10.3116 15.2299 10.8669 15.3736 11.5856 15.3736C12.2781 15.3736 12.8139 15.2364 13.1928 14.962C13.5717 14.6745 13.7612 14.2695 13.7612 13.7468C13.7612 13.2372 13.5587 12.8387 13.1536 12.5512C12.7616 12.2637 12.2128 12.12 11.5072 12.12Z" fill="#00527A"/></svg>