<svg width="22" height="23" viewBox="0 0 22 23" fill="none" xmlns="http://www.w3.org/2000/svg"><g clip-path="url(#clip0_397_23132)"><path fill-rule="evenodd" clip-rule="evenodd" d="M17.7356 14.275H20.8368V17.0719H17.7356V14.275ZM18.2443 15.6615C18.2443 15.8803 18.3266 16.0765 18.4691 16.2046C18.9608 16.6471 19.7222 16.2961 19.7222 15.6615C19.7222 15.2783 19.3711 14.9443 18.9712 14.9443C18.5825 14.9443 18.2443 15.2749 18.2443 15.6615ZM16.5483 14.251V17.0957C16.5483 17.5776 16.7764 17.9424 17.1695 18.1323C17.2942 18.1924 17.4633 18.2431 17.6386 18.2431H20.8368V20.3465C20.8368 20.9477 20.5551 21.4143 20.0938 21.6694C19.9823 21.7312 19.7137 21.8287 19.5526 21.8287H2.44702C2.02412 21.8287 1.55776 21.4892 1.34868 21.1194C1.23985 20.9266 1.16535 20.6823 1.16188 20.3954C1.1438 18.9161 1.1628 17.341 1.1628 15.8526C1.1628 13.4382 1.1628 11.024 1.1628 8.60954C2.13496 9.11721 2.28195 9.01596 3.44036 9.01596H18.317C19.2601 9.01596 19.9105 8.87995 20.5036 9.53588C20.5929 9.63461 20.6997 9.82035 20.7496 9.96249C20.8093 10.1326 20.8367 10.3271 20.8367 10.5458V13.1036H17.687C17.5064 13.1036 17.3523 13.1361 17.2192 13.1917C17.1175 13.2343 16.936 13.349 16.87 13.4211C16.8353 13.4589 16.8416 13.46 16.807 13.5023C16.6328 13.7156 16.5483 13.9338 16.5483 14.251ZM13.9316 6.88835C14.6955 6.88835 15.513 7.29334 15.8216 7.86857H12.1146C12.4046 7.32811 13.2281 6.88835 13.9318 6.88835H13.9316ZM4.45799 7.86857H2.61666C1.39525 7.86857 0.751945 6.49327 1.49622 5.66349C1.67992 5.45883 2.04147 5.23905 2.42292 5.23905H4.9428C4.9428 5.39902 4.73646 6.38825 4.70231 6.55561L4.45818 7.86857H4.45799ZM18.2443 3.73314C18.2443 3.56074 18.2894 3.40671 18.2927 3.25502L20.0486 3.98482C20.3221 4.18065 20.1163 4.51555 20.0372 4.71318C19.9856 4.84253 19.9335 4.96738 19.8745 5.10231L19.5528 5.86058C19.3642 5.76203 19.2126 5.65268 19.0512 5.51882C18.9595 5.4428 18.9183 5.38281 18.8427 5.29417C18.6044 5.01458 18.5038 4.84487 18.3747 4.46511C18.3098 4.27432 18.2445 3.97311 18.2445 3.73296L18.2443 3.73314ZM17.0813 3.58974V3.90051C17.0813 4.84956 17.632 5.82437 18.3111 6.41635C18.4579 6.54426 18.8962 6.86745 19.0923 6.91249C19.0779 7.0831 18.7452 7.67544 18.7289 7.86875H17.154C17.1169 7.79939 17.0928 7.72408 17.0574 7.65328C17.0201 7.5787 16.9858 7.50736 16.9407 7.43368C16.1822 6.19332 14.8684 5.53432 13.3842 5.775C12.8768 5.85733 12.3596 6.09081 11.9691 6.36284C11.7099 6.54318 11.4883 6.76152 11.2869 7.00455C11.1696 7.14615 10.8231 7.66535 10.8059 7.86875H10.079C10.0859 7.78606 10.1347 7.694 10.1675 7.62157L11.7264 3.90069C12.0045 4.03238 12.5388 4.09021 12.8706 4.10804C12.9434 4.11201 12.9573 4.09453 13.0581 4.09129C13.8517 4.06697 14.5015 3.80827 15.0981 3.37842C15.3727 3.18061 15.9685 2.58431 16.0392 2.3229C16.1283 2.36938 16.2339 2.40145 16.3294 2.44307L17.2022 2.80103C17.1438 2.92119 17.0811 3.39319 17.0811 3.58992L17.0813 3.58974ZM12.914 2.94425C12.5253 2.94425 12.3343 2.85183 12.1871 2.84859C12.2039 2.77761 12.2441 2.69492 12.2756 2.62538L12.561 1.95071C12.6051 1.84153 12.7904 1.36179 12.858 1.28756C13.114 1.00652 13.5734 1.32323 14.0701 1.5169C14.2176 1.57437 14.352 1.62895 14.4972 1.69327L14.9493 1.86874C14.6195 2.35461 14.1725 2.65817 13.6081 2.8403C13.4341 2.89651 13.1329 2.94443 12.914 2.94443V2.94425ZM8.81921 7.86857H7.7289L8.84039 4.44727C8.93662 4.16209 9.02208 3.8879 9.1194 3.59911L9.67031 1.89558C9.86058 1.33242 9.95498 1.51005 10.4182 1.51005C10.9065 1.51005 11.1841 0.807093 10.7033 0.463901C10.2842 0.164846 9.43074 0.33401 9.03066 0.714674C8.64665 1.08003 8.54787 1.53149 8.36161 2.1105C7.86348 3.65874 7.35622 5.27526 6.84165 6.80224C6.78121 6.98167 6.71493 7.1557 6.66782 7.32396C6.61815 7.50123 6.53324 7.68031 6.51735 7.86875H5.64507C5.75098 7.42052 5.81946 6.94528 5.9135 6.48409L6.45491 3.67153C6.48905 3.48255 6.59715 2.79256 6.68663 2.65709C6.88237 2.36056 7.17928 2.6688 7.51855 2.40235C7.93853 2.07249 7.79775 1.34269 7.00179 1.34269C6.32818 1.34269 5.81873 1.75614 5.59596 2.20274C5.44878 2.49783 5.35839 3.17917 5.27549 3.5838C5.24865 3.71513 5.19679 3.92285 5.18456 4.06787C4.55459 4.06787 3.92462 4.06787 3.29465 4.06787C2.17276 4.06787 1.2499 4.05328 0.497584 5.03746C0.253995 5.35615 -0.000366211 5.86598 -0.000366211 6.41058V20.538C-0.000366211 21.156 0.329774 21.8328 0.756328 22.2536L1.0998 22.5361C1.45496 22.7898 2.03106 23.0002 2.51933 23.0002H19.4796C20.0228 23.0002 20.6751 22.7485 21.0607 22.4087C21.6052 21.929 21.9995 21.314 21.9995 20.538V10.283C21.9995 9.86467 21.8117 9.37645 21.5976 9.05398C21.3773 8.72213 21.1025 8.44307 20.7539 8.23698C20.3088 7.97396 20.1313 7.99539 19.9644 7.91649L21.072 5.2803C21.3045 4.70021 21.5411 4.26153 21.2084 3.6056C21.0987 3.38923 21.0399 3.32564 20.8792 3.16548C20.6296 2.91651 20.1941 2.77022 19.8643 2.63691C19.4922 2.48666 19.1436 2.33786 18.7667 2.18995L16.5792 1.28846C16.3887 1.20721 16.22 1.14776 16.0312 1.06417L14.3881 0.390398C13.7094 0.121249 13.2253 -0.19474 12.4612 0.155298C12.3264 0.217091 12.1016 0.374545 12.0114 0.476512C11.7258 0.799347 11.4501 1.54987 11.2701 1.99214L10.5912 3.59317C10.1562 4.6413 9.66173 5.74798 9.24485 6.78278L8.90923 7.57528C8.85847 7.68949 8.84897 7.743 8.81921 7.86893V7.86857Z" fill="#00527A"/></g><defs><clipPath id="clip0_397_23132"><path fill="#fff" d="M0 0H22V23H0z"/></clipPath></defs></svg>