<svg width="23" height="23" viewBox="0 0 23 23" fill="none" xmlns="http://www.w3.org/2000/svg"><circle cx="11.5" cy="11.5" r="10.75" stroke="#00527A" stroke-width="1.5"/><path fill-rule="evenodd" clip-rule="evenodd" d="M12.484 3.15089C12.4051 3.16305 12.4731 3.14427 12.4003 3.17592C12.3165 3.21233 11.997 3.4266 12.0412 3.19399C12.0587 3.10144 12.1634 2.95564 12.2184 2.91522C12.3101 2.8479 12.3938 2.88433 12.5062 2.93423C12.4886 2.66782 11.9228 2.33728 11.7966 3.16354C11.5724 3.20166 11.4899 3.51359 11.3738 3.81531C11.271 4.08239 11.1266 4.39742 11.2613 4.55786C11.0917 4.87972 11.1655 4.97319 11.3746 5.14346C11.5529 5.28861 11.7798 5.37204 12.0031 5.44759C12.0202 5.65571 12.0159 5.64199 12.1426 5.80349C11.9815 6.19875 12.1285 6.28201 12.1758 6.52849L11.9502 6.80246C11.9006 6.68598 11.7681 6.49539 11.6067 6.56258C11.4635 6.62218 11.5244 6.57943 11.3651 6.55905C11.2455 6.54372 11.2309 6.59159 11.1544 6.59278C11.0678 6.59413 11.0127 6.55511 10.9 6.567C10.7219 6.58579 10.4186 6.61307 10.2951 6.75528C10.2572 6.59352 10.1377 6.42488 9.98284 6.28173C9.65383 5.97766 9.48942 6.14096 9.42247 6.11414C9.3491 6.03926 9.27079 5.94457 9.23944 5.85457C9.18221 5.69024 9.27249 5.66201 9.37912 5.60224C9.14425 5.50836 8.89158 5.64949 8.93233 5.95707C8.95166 6.10296 9.08094 6.21973 9.17034 6.33212C9.28144 6.47177 9.11992 6.52043 9.3322 6.74686C9.48918 6.9143 9.90766 7.35128 10.1289 7.16409C10.2607 7.39353 10.348 7.41791 10.5987 7.34119C10.7856 7.284 10.9631 7.26831 11.0827 7.06173C11.2787 7.19029 11.2132 7.05292 11.3694 7.28725C11.4331 7.38269 11.5221 7.50405 11.5998 7.58025C11.5331 7.68283 11.4752 7.74789 11.3911 7.81696C11.1593 8.00714 10.9338 7.62077 10.6739 8.06719C10.2603 7.98325 10.3067 8.07507 10.1115 8.22837C10.0533 8.2741 9.77701 8.24472 9.55805 8.35524C9.41915 8.42536 9.20917 8.50058 9.06773 8.67593C8.84557 8.9514 9.12777 8.81856 8.67185 9.16391C8.51368 9.28372 8.34937 9.43228 8.19463 9.57731C8.03804 9.72407 7.85068 9.8868 7.83119 10.1442C7.81347 10.3782 7.65999 10.6018 7.70752 10.8495C7.75403 11.0918 8.00518 11.1352 8.1763 10.9309C8.06535 10.9276 7.90906 10.9689 7.86206 10.8281C7.8219 10.7079 7.90458 10.5519 7.98261 10.4565C7.99015 10.4557 7.9989 10.4574 8.00484 10.4584L8.09148 10.4774C8.14267 10.4912 8.12187 10.4995 8.18601 10.4974C8.23596 10.4958 8.2941 10.4623 8.3325 10.4378C8.51524 10.3214 8.70302 9.82408 9.0603 9.43503C9.29729 9.17696 9.26685 9.4018 9.66381 9.12162C9.7276 9.07659 9.73994 9.05572 9.81116 9.0031C9.96599 8.88869 10.0753 8.77715 10.1945 8.59807C10.4153 8.68831 10.4083 8.63681 10.5703 8.59307C10.6757 8.56463 10.8701 8.67793 10.991 8.72253C11.0105 8.7787 11.0248 8.82487 11.0472 8.87614C10.8245 8.9511 10.8105 8.88568 10.6216 9.08699C10.4593 9.26004 10.3807 9.41033 10.4743 9.57913C10.287 9.73733 10.1132 9.68585 9.77294 10.12C9.54095 10.416 9.28832 10.6915 9.45865 10.965C9.2799 10.9631 9.19201 11.0106 9.06173 11.177C8.95291 11.3159 8.84905 11.4767 8.74948 11.6316C8.24267 12.4202 8.39468 12.2645 8.44733 12.638C8.10762 12.6904 7.93362 13.1644 7.79213 13.4935C7.59924 13.9423 7.46272 14.2582 7.88508 14.4308C7.78659 14.553 7.66266 14.5783 7.55808 14.7846C7.47867 14.9412 7.42636 15.1758 7.39371 15.3389C7.30925 15.7607 7.21123 16.0195 7.60748 16.1541C7.4118 16.5695 7.27796 16.943 7.3057 17.3457C7.32291 17.5954 7.3801 17.8866 7.58802 17.9747C7.70146 18.0227 7.75049 17.9544 7.79276 18.0702C7.80531 18.1835 7.53806 18.1263 7.64946 18.4845C7.69621 18.635 7.72944 18.7445 7.78612 18.8932C8.01549 19.4948 8.15521 19.2311 8.43118 19.1644C8.49609 19.2668 8.48608 19.4489 8.68807 19.5185C8.87243 19.582 9.30321 19.3027 9.48159 19.2039C9.78099 19.038 9.56629 18.8823 9.64839 18.8134C9.74061 18.7528 9.87251 18.9658 10.1166 18.872C10.6309 18.6742 10.9127 18.13 11.1053 17.555C11.4845 17.7312 11.5929 17.4754 11.8226 17.1127C12.2527 16.4335 12.0621 16.4973 12.0938 16.1165C12.5274 16.2855 12.6467 15.9439 12.8176 15.4768C12.9376 15.1491 13.1295 14.6973 12.9246 14.4311C13.2224 14.1974 13.2237 14.4104 13.4006 13.4944C13.468 13.1453 13.5927 12.7595 13.3487 12.5222C13.6624 12.435 13.6711 12.06 13.7025 11.6942C13.7331 11.3372 13.6648 11.0595 13.5581 10.8548C13.6354 10.7672 13.6914 10.7991 13.7504 10.6625C13.7878 10.5761 13.8019 10.4353 13.8026 10.3609C13.8049 10.0854 13.7496 10.1218 13.6404 9.91453C13.6918 9.89279 13.7342 9.86976 13.7869 9.84235C13.9051 9.89318 14.124 9.94582 14.1806 10.039C14.269 10.1846 14.2267 10.2126 14.4491 10.3027C14.4018 10.5658 14.4241 10.8063 14.4718 11.0472C14.5664 11.5251 14.6991 11.3406 14.6919 11.6906C14.6761 12.4629 14.3053 12.9094 14.6934 13.1233L14.7674 13.1726C14.7555 13.3077 14.6989 13.4848 14.5813 13.5333C14.4546 13.5856 14.3748 13.4512 14.299 13.383C14.2712 13.8051 14.6728 13.8258 14.9153 13.3655C15.1579 12.9051 15.2489 12.9283 15.2191 12.3715L15.1126 11.4481C15.1176 11.3485 15.2029 11.2955 15.2117 11.1156C15.2244 10.8569 15.073 10.4733 14.9345 10.3017C14.8674 10.2186 14.7695 10.177 14.7633 10.072C14.7454 9.7692 14.7248 9.74937 14.4692 9.58688C14.5251 9.34752 14.4575 9.22365 14.2796 9.10833C14.1314 9.01229 14.0651 8.96915 14.1351 8.596C14.244 8.59389 14.3919 8.56771 14.5038 8.54256C14.7785 8.4808 14.6365 8.53506 14.8669 8.57731C14.8286 8.73585 14.852 8.77796 14.9037 8.87689C15.0602 9.17618 15.0953 9.41228 15.4863 9.31123C15.5104 9.52305 15.8646 9.54668 16.0521 9.55641C16.2394 9.56612 16.487 9.61121 16.631 9.44709C16.7535 9.30749 16.698 9.38834 16.9171 9.35597C17.3519 9.29175 17.5013 8.85459 17.1071 8.69764C17.1092 8.70441 17.1132 8.71251 17.1149 8.71709L17.13 8.75549C17.1325 8.76293 17.1409 8.78529 17.1424 8.79309C17.1802 8.98573 16.8154 9.07503 16.7223 9.03773C16.6598 9.01273 16.6509 8.77422 16.1826 8.7719C15.9741 8.77086 15.7836 8.81252 15.6482 8.89899C15.6569 8.76274 15.4199 8.41476 15.3035 8.30542C15.2549 8.2598 15.18 8.22918 15.1387 8.18856C15.0934 8.14394 15.1037 8.10441 15.0396 8.04305C14.9912 7.99676 14.9177 7.97386 14.8752 7.9352C14.7976 7.86456 14.8646 7.88495 14.7895 7.77508C14.6724 7.72204 14.5041 7.75397 14.4201 7.79085L14.4378 7.43773C14.6475 7.291 14.813 7.33317 14.9684 6.93527C15.1717 6.90589 15.159 6.91304 15.3152 6.77411C15.5288 6.87355 15.7499 6.97048 15.9796 6.98683C16.2509 7.00617 16.3645 6.99632 16.4667 6.64234C16.6749 6.61772 16.7873 6.29225 16.8973 6.02755C17.0217 5.72857 17.1773 5.44658 17.0412 5.26405C17.4948 4.61578 16.9128 4.40049 16.6859 4.6086C16.8297 4.65925 16.9052 4.69322 16.9109 4.83166C16.9207 5.06813 16.7658 5.32346 16.6445 5.0134C16.6099 4.92508 16.6072 4.85137 16.5526 4.78043C16.4985 4.99566 16.5196 5.16691 16.589 5.27797C16.4191 5.61391 16.3168 5.8556 16.2177 6.22702L16.029 6.24362C15.6178 6.28652 15.6581 6.19916 15.4574 6.2036C15.3552 6.20584 15.3664 6.24139 15.2947 6.27174C15.2184 6.30408 15.1984 6.27321 15.1104 6.28189C14.9355 6.29913 14.9425 6.38438 14.8186 6.51844C14.5563 6.41365 14.5929 6.54433 14.4376 6.28205C14.3582 6.14813 14.1846 6.04216 14.1287 5.92096C14.2071 5.73447 14.2893 5.75596 14.4092 5.68766C14.856 5.43318 14.8211 4.96105 14.805 4.61964C14.9695 4.54642 15.2127 4.4733 15.4451 4.48897C15.7731 4.51108 15.855 4.64421 16.0399 4.82691C16 4.36485 15.5439 4.18232 15.1114 4.26946C14.9694 4.29808 14.8653 4.35025 14.7558 4.36664C14.7535 4.2029 14.9043 3.76029 14.6427 3.65532C14.3783 3.54925 14.1801 3.97993 14.0698 4.09165C13.9017 3.87408 13.8437 3.64473 13.5742 3.479C13.2835 3.30017 12.9992 3.38307 12.823 3.53855C13.0923 3.53382 13.244 3.49491 13.5013 3.71713C13.6763 3.86825 13.7892 4.07504 13.8599 4.24078C13.6675 4.42419 13.4791 4.53331 13.3931 4.93607C13.321 5.27346 13.5482 5.39254 13.4507 5.6494L13.377 5.66537C13.3635 5.6666 13.3353 5.66558 13.3205 5.66533L12.9779 5.6974C12.6844 5.77994 12.8011 5.71069 12.539 5.60539C12.5419 5.42316 12.6062 5.3657 12.4913 5.23281C12.4337 5.16614 12.3977 5.17435 12.3648 5.09829C12.334 5.02683 12.3665 5.00881 12.2942 4.93668C12.216 4.85878 12.0711 4.81254 11.966 4.71037L11.7279 4.42881C11.9125 4.09124 12.0052 3.84652 12.1143 3.48582C12.2412 3.45338 12.3746 3.34399 12.4841 3.15093L12.484 3.15089Z" fill="#00527A"/><path stroke="#00527A" stroke-width="1.5" d="M4.547 3.487L19.547 19.487"/></svg>