<svg width="17" height="22" viewBox="0 0 17 22" fill="none" xmlns="http://www.w3.org/2000/svg"><path fill-rule="evenodd" clip-rule="evenodd" d="M1.91842 9.49609V4.51173C1.91842 4.16219 2.21423 4.08566 2.48699 3.9906C2.75729 3.89639 3.07253 3.78629 3.33705 3.70033C3.92094 3.51057 4.4476 3.31012 5.03802 3.12058C5.32543 3.02831 5.58845 2.93521 5.85532 2.84141C6.13256 2.74395 6.42085 2.656 6.70192 2.54777C6.9909 2.4365 7.25406 2.36284 7.54689 2.25253C9.22707 1.6196 8.94176 1.91523 8.94176 4.55469C8.94176 5.54298 8.94176 6.53126 8.94176 7.51952C8.94176 10.7034 8.62706 10.5703 10.3552 10.5703H13.4031C15.1891 10.5703 15.2555 10.1172 14.8097 13.2277C14.5951 14.7247 13.8883 16.1362 12.7961 17.1986L11.9954 17.8806C11.6963 18.1124 11.4225 18.3001 11.0974 18.5109C10.5737 18.8505 9.71856 19.3695 9.19241 19.6227C8.89425 19.7662 8.48953 20.107 8.17537 19.7807C7.94954 19.5462 8.0583 18.8004 8.0583 18.3906L8.05833 12.4609C8.05902 11.9093 8.09374 11.5536 7.59353 11.4521C7.27615 11.3877 3.53298 11.4297 3.02271 11.4297C2.41226 11.4297 2.00739 11.5424 1.96304 10.9566L1.91845 9.49609H1.91842ZM8.55533 22H8.4447C8.25621 21.9771 8.04323 21.8387 7.55787 21.5844C5.41356 20.4611 5.25043 20.3603 3.53391 19.0534C2.54503 18.3006 1.75012 17.2812 1.18212 16.185C0.430226 14.7338 0.339004 13.5489 0.138869 12.0435C-0.0704719 10.4689 0.0190051 4.96838 0.0190051 3.17967C0.0190051 2.78472 0.571121 2.67912 0.897317 2.57312C1.23335 2.46389 1.63886 2.31797 1.96893 2.19759L6.87157 0.52139C7.06683 0.458525 7.19452 0.40081 7.38975 0.337974C7.65701 0.251959 8.28302 0 8.5 0C8.71683 0 10.9506 0.789709 11.2765 0.908533L15.6176 2.40047C16.1699 2.57827 16.981 2.76616 16.981 3.17967C16.981 4.96838 17.0705 10.4689 16.8611 12.0435C16.806 12.4585 16.7866 12.8267 16.7228 13.198C16.3198 15.5427 15.413 17.5713 13.4661 19.0535C13.2002 19.2558 13.0139 19.4415 12.7317 19.6282C11.7416 20.2833 11.5322 20.4532 10.3087 21.1384C10.0154 21.3027 9.75238 21.4219 9.4421 21.5844C8.95674 21.8387 8.74379 21.9772 8.55527 22L8.55533 22Z" fill="#00527A"/></svg>