<svg width="19" height="19" viewBox="0 0 19 19" fill="none" xmlns="http://www.w3.org/2000/svg"><path fill-rule="evenodd" clip-rule="evenodd" d="M3.11096 0C2.72034 0.163302 2.94299 0.00278128 2.62059 0.377461L1.52516 2.04634C1.06652 2.82887 0.629535 3.5977 0.290229 4.57036C-1.74205 10.3954 7.62674 10.4522 5.8614 4.78035C5.42698 3.38483 4.02023 0.805283 3.11096 0ZM15.9754 3.46599C15.1219 3.9547 13.5771 7.00598 13.1503 8.16438C12.3007 10.4706 13.8748 12.5308 15.9759 12.5199C18.0053 12.5094 19.5546 10.5497 18.8101 8.29451C18.3625 6.93863 17.6272 5.70791 16.8662 4.57503C16.708 4.33951 16.6072 4.16389 16.4787 3.98678L15.9754 3.46609V3.46599ZM8.36744 9.96239C8.06748 10.13 8.3101 9.95593 8.0919 10.1628C7.25471 10.9569 5.88513 13.7159 5.54572 14.7126C4.76982 16.991 6.20693 18.9903 8.36586 18.9999C10.5179 19.0094 11.9315 16.9833 11.187 14.7002C10.9079 13.8446 9.26188 10.4825 8.36744 9.96229V9.96239Z" fill="#03567A"/></svg>