<svg width="23" height="23" viewBox="0 0 23 23" fill="none" xmlns="http://www.w3.org/2000/svg"><circle cx="11.5" cy="11.5" r="10.75" stroke="#00527A" stroke-width="1.5"/><path stroke="#00527A" stroke-width="1.5" d="M4.547 3.487L19.547 19.487"/><path fill-rule="evenodd" clip-rule="evenodd" d="M18.9996 8.56048C18.9989 9.02641 18.9669 9.40501 18.8533 9.79809C18.674 10.4178 18.3492 11.1589 18.0106 11.7037C17.8253 12.002 17.6663 12.2816 17.4762 12.5675C16.8849 13.4575 16.2964 14.1186 15.9694 15.1759C15.8596 15.5306 15.8053 16.0049 15.8065 16.4312C15.8077 16.8738 15.8838 17.5024 16.0174 17.8684C16.1799 18.3139 16.2136 18.4471 16.4298 18.8558C16.4607 18.9142 16.4649 18.9374 16.4888 18.9889C16.2157 18.9765 15.1312 18.1887 14.8566 17.928C14.3868 17.4822 14.0253 17.0088 13.7636 16.2768C13.4974 15.5319 13.5531 14.6286 13.7555 13.8883C13.8584 13.5119 13.9775 13.191 14.11 12.8602C14.3762 12.1958 14.9641 11.33 15.3937 10.7414C15.4883 10.6116 15.5961 10.4984 15.6883 10.3535C16.0383 9.80272 16.5069 8.96457 16.5929 8.17769C16.6059 8.05907 16.6432 7.99085 16.6516 7.89164C16.6782 7.583 16.6729 6.83986 16.6194 6.5515C16.5395 6.1209 16.5024 5.91553 16.3334 5.46495C16.2127 5.14342 16.073 4.81784 15.9093 4.51311L15.6868 4.15146C15.6613 4.09975 15.6734 4.13567 15.6475 4.05384C15.8074 4.06485 15.8787 4.13596 16.0113 4.20331C16.5287 4.46647 16.2694 4.28268 16.9303 4.75411C17.3589 5.06 17.6038 5.32519 17.9257 5.71074C18.4498 6.33873 19.0013 7.38632 18.9998 8.56077L18.9996 8.56048ZM10.4489 8.56048C10.4487 9.09144 10.4178 9.26669 10.2948 9.72176C10.1225 10.3598 10.1297 10.3816 9.8008 11.0415C9.38139 11.8827 8.78602 12.764 8.24807 13.5263C7.66444 14.353 7.38818 14.8942 7.26625 15.9135C7.25663 15.9936 7.23952 16.007 7.23103 16.0981C7.20415 16.3903 7.23131 16.699 7.26172 16.9668C7.33811 17.6424 7.55326 18.2583 7.86516 18.8547C7.90137 18.9239 7.91481 18.9313 7.94084 18.983C7.86346 19.0288 7.60559 18.854 7.51789 18.8018C6.91799 18.4449 6.90823 18.4703 6.31993 17.9527C5.86884 17.5558 5.44561 17.0137 5.20387 16.2985C4.87938 15.3383 4.99791 14.8112 5.17614 13.8964C5.28577 13.3346 5.7254 12.459 6.0127 11.9547C6.62023 10.8885 7.44137 10.1477 7.82117 8.96051C7.88298 8.76745 7.92146 8.59828 7.97761 8.39943C8.12303 7.88469 8.12982 7.08101 8.04396 6.51427C8.03434 6.45084 8.00378 6.30035 7.98412 6.21838C7.96418 6.13466 7.93985 6.0172 7.91509 5.93088C7.81381 5.58024 7.68679 5.25103 7.54123 4.93052L7.16978 4.26153C7.08901 4.13929 7.06284 4.139 7.03978 4.00851C7.2009 4.04428 7.60503 4.24183 7.73234 4.3283C8.37991 4.76787 8.78545 5.00134 9.33316 5.6893C9.93178 6.44113 10.4482 7.5016 10.4489 8.56034V8.56048ZM14.719 8.56048C14.718 8.91257 14.6746 9.48597 14.5737 9.80504C14.2417 10.8549 13.848 11.5632 13.2353 12.4779C12.4403 13.6649 11.5749 14.6377 11.5299 16.1233C11.5021 17.047 11.6523 17.9312 12.0737 18.6983C12.1185 18.7799 12.1781 18.9139 12.2243 18.9826C12.1418 19.0266 12.1171 18.9831 11.9762 18.901C11.3201 18.519 10.7942 18.217 10.2587 17.6111C9.63332 16.9038 9.29794 16.1353 9.30359 15.0978C9.30628 14.6148 9.38691 14.1102 9.5244 13.6511C9.54152 13.5937 9.57348 13.5271 9.59272 13.4676C9.73516 13.0306 9.95838 12.5391 10.1854 12.1505C10.4726 11.6595 10.7743 11.1721 11.1252 10.7286C11.9148 9.73074 12.6132 8.21636 12.3536 6.74775C12.3356 6.64593 12.3209 6.45996 12.2922 6.34931C12.1516 5.8072 12.2082 5.85905 11.9577 5.23018C11.8711 5.01322 11.765 4.79539 11.6506 4.5974C11.5865 4.48646 11.3061 4.05645 11.2921 4.00011C11.6021 3.98953 12.7565 4.77772 13.1075 5.13097C13.289 5.31346 13.4271 5.45221 13.5984 5.65367C14.1425 6.29384 14.7222 7.36112 14.719 8.56019V8.56048Z" fill="#03567A"/></svg>